<?xml version="1.0" encoding="UTF-8"?>
<svg id="Layer_1" xmlns="http://www.w3.org/2000/svg" version="1.1" viewBox="0 0 960 616.36">
  <!-- Generator: Adobe Illustrator 30.3.0, SVG Export Plug-In . SVG Version: 2.1.3 Build 182)  -->
  <defs>
    <style>
      .st0, .st1, .st2, .st3, .st4, .st5, .st6, .st7, .st8, .st9, .st10, .st11, .st12, .st13, .st14, .st15, .st16, .st17, .st18, .st19, .st20, .st21, .st22, .st23, .st24, .st25, .st26, .st27, .st28, .st29, .st30 {
        stroke-miterlimit: 10;
      }

      .st0, .st5, .st8, .st13, .st14, .st15, .st16, .st20, .st27, .st28, .st30 {
        fill: none;
      }

      .st0, .st11 {
        stroke: #cedfe9;
      }

      .st1, .st7, .st10 {
        fill: #fff;
      }

      .st1, .st9, .st22, .st28 {
        stroke: #fff0eb;
      }

      .st31 {
        fill: #b6d2a8;
      }

      .st2, .st14 {
        stroke: #f1cd80;
      }

      .st2, .st32 {
        fill: #f1cd80;
      }

      .st3 {
        stroke: #c4e0a3;
      }

      .st3, .st9 {
        fill: #c4e0a3;
      }

      .st4 {
        fill: #a4c9db;
        stroke: #a4c9db;
      }

      .st5 {
        stroke: #ffea99;
      }

      .st33, .st11 {
        fill: #cedfe9;
      }

      .st6 {
        fill: #f9d5e5;
        stroke: #f9d5e5;
      }

      .st7 {
        stroke: #fff;
      }

      .st8, .st18 {
        stroke: #feea9a;
      }

      .st10 {
        stroke: #000;
      }

      .st34 {
        fill: #fbc4ac;
      }

      .st12 {
        fill: #a4d1eb;
        stroke: #a4d1eb;
      }

      .st13 {
        stroke: #ffd4eb;
      }

      .st15 {
        stroke: #b6d2a8;
      }

      .st35 {
        fill: #ffd4eb;
      }

      .st16 {
        stroke: #ffdcaa;
      }

      .st17 {
        stroke: #adc692;
      }

      .st17, .st36 {
        fill: #adc692;
      }

      .st18, .st37 {
        fill: #feea9a;
      }

      .st19 {
        fill: #c3e1b2;
        stroke: #c3e1b2;
      }

      .st20 {
        stroke: #fbc4ac;
      }

      .st21 {
        fill: #f8bfd8;
        stroke: #f8bfd8;
      }

      .st38, .st22 {
        fill: #fff0eb;
      }

      .st23 {
        fill: #e2e6ea;
        stroke: #e2e6ea;
      }

      .st39 {
        fill: #ffdcaa;
      }

      .st24 {
        fill: #fce9f1;
        stroke: #fce9f1;
      }

      .st25 {
        fill: #f8c7dd;
        stroke: #fbdbe9;
      }

      .st40, .st26 {
        fill: #fcdee1;
      }

      .st26, .st27 {
        stroke: #fcdee1;
      }

      .st41, .st29 {
        fill: #acd4e7;
      }

      .st42 {
        fill: #ffea99;
      }

      .st29, .st30 {
        stroke: #acd4e7;
      }
    </style>
  </defs>
  <path class="st22" d="M858.75-4.76"/>
  <polygon class="st19" points="0 0 0 616.36 66.32 616.36 960 616.36 960 0 0 0"/>
  <rect class="st36" x="571.88" y="263.73" width="180" height="180" rx="10" ry="10"/>
  <g>
    <rect class="st38" x="593.29" y="285.55" width="135.46" height="135.22" rx="10" ry="10"/>
    <rect class="st28" x="593.29" y="285.55" width="135.46" height="135.22" rx="10" ry="10"/>
  </g>
  <path class="st22" d="M841.88,623.73"/>
  <g>
    <rect class="st38" x="774.38" y="357.48" width="33.75" height="101.25" rx="10" ry="10"/>
    <rect class="st28" x="774.38" y="357.48" width="33.75" height="101.25" rx="10" ry="10"/>
  </g>
  <g>
    <rect class="st38" x="774.38" y="267.48" width="33.75" height="33.75" rx="10" ry="10"/>
    <rect class="st28" x="774.38" y="267.48" width="33.75" height="33.75" rx="10" ry="10"/>
  </g>
  <g>
    <rect class="st38" x="774.38" y="312.48" width="33.75" height="33.75" rx="10" ry="10"/>
    <rect class="st28" x="774.38" y="312.48" width="33.75" height="33.75" rx="10" ry="10"/>
  </g>
  <g>
    <rect class="st38" x="841.88" y="402.48" width="78.75" height="50.62" rx="10" ry="10"/>
    <rect class="st28" x="841.88" y="402.48" width="78.75" height="50.62" rx="10" ry="10"/>
  </g>
  <g>
    <rect class="st38" x="763.12" y="188.73" width="45" height="45" rx="10" ry="10"/>
    <rect class="st28" x="763.12" y="188.73" width="45" height="45" rx="10" ry="10"/>
  </g>
  <g>
    <rect class="st38" x="841.88" y="188.73" width="78.75" height="45" rx="10" ry="10"/>
    <rect class="st28" x="841.88" y="188.73" width="78.75" height="45" rx="10" ry="10"/>
  </g>
  <g>
    <rect class="st38" x="583.12" y="188.73" width="45" height="45" rx="10" ry="10"/>
    <rect class="st28" x="583.12" y="188.73" width="45" height="45" rx="10" ry="10"/>
  </g>
  <g>
    <rect class="st38" x="650.62" y="188.73" width="78.75" height="45" rx="10" ry="10"/>
    <rect class="st28" x="650.62" y="188.73" width="78.75" height="45" rx="10" ry="10"/>
  </g>
  <g>
    <rect class="st38" x="639.38" y="64.47" width="303.75" height="89.97" rx="10" ry="10"/>
    <rect class="st28" x="639.38" y="64.47" width="303.75" height="89.97" rx="10" ry="10"/>
  </g>
  <g>
    <rect class="st37" x="538.12" y="479.31" width="371.25" height="26.33" rx="10" ry="10"/>
    <rect class="st8" x="538.12" y="479.31" width="371.25" height="26.33" rx="10" ry="10"/>
  </g>
  <g>
    <rect class="st39" x="279.38" y="334.98" width="168.75" height="33.75" rx="10" ry="10"/>
    <rect class="st16" x="279.38" y="334.98" width="168.75" height="33.75" rx="10" ry="10"/>
  </g>
  <g>
    <rect class="st35" x="279.38" y="291.49" width="168.75" height="33.75" rx="10" ry="10"/>
    <rect class="st13" x="279.38" y="291.49" width="168.75" height="33.75" rx="10" ry="10"/>
  </g>
  <g>
    <rect class="st35" x="279.38" y="166.23" width="38.42" height="108.6" rx="10" ry="10"/>
    <rect class="st13" x="279.38" y="166.23" width="38.42" height="108.6" rx="10" ry="10"/>
  </g>
  <g>
    <rect class="st35" x="279.38" y="109.98" width="90" height="33.75" rx="10" ry="10"/>
    <rect class="st13" x="279.38" y="109.98" width="90" height="33.75" rx="10" ry="10"/>
  </g>
  <g>
    <rect class="st35" x="279.38" y="42.48" width="90" height="45" rx="10" ry="10"/>
    <rect class="st13" x="279.38" y="42.48" width="90" height="45" rx="10" ry="10"/>
  </g>
  <g>
    <rect class="st33" x="403.12" y="222.48" width="45" height="45" rx="10" ry="10"/>
    <rect class="st0" x="403.12" y="222.48" width="45" height="45" rx="10" ry="10"/>
  </g>
  <g>
    <rect class="st39" x="223.12" y="62.3" width="33.75" height="351.43" rx="10" ry="10"/>
    <rect class="st16" x="223.12" y="62.3" width="33.75" height="351.43" rx="10" ry="10"/>
  </g>
  <path class="st10" d="M358.12,188.73"/>
  <g>
    <rect class="st35" x="178.12" y="62.3" width="33.75" height="351.43" rx="10" ry="10"/>
    <rect class="st13" x="178.12" y="62.3" width="33.75" height="351.43" rx="10" ry="10"/>
  </g>
  <circle class="st22" cx="296.77" cy="406.23" r="17.14"/>
  <g>
    <rect class="st33" x="434.6" y="431.84" width="47.28" height="94.38" rx="10" ry="10"/>
    <rect class="st0" x="434.6" y="431.84" width="47.28" height="94.38" rx="10" ry="10"/>
  </g>
  <path class="st22" d="M493.12,481.23"/>
  <g>
    <rect class="st38" x="408.75" y="548.73" width="33.75" height="56.25" rx="10" ry="10"/>
    <rect class="st28" x="408.75" y="548.73" width="33.75" height="56.25" rx="10" ry="10"/>
  </g>
  <g>
    <rect class="st38" x="459.38" y="545.92" width="33.75" height="59.06" rx="10" ry="10"/>
    <rect class="st28" x="459.38" y="545.92" width="33.75" height="59.06" rx="10" ry="10"/>
  </g>
  <g>
    <rect class="st39" x="391.88" y="149.35" width="33.75" height="50.62" rx="10" ry="10"/>
    <rect class="st16" x="391.88" y="149.35" width="33.75" height="50.62" rx="10" ry="10"/>
  </g>
  <circle class="st22" cx="240" cy="464.35" r="16.88"/>
  <g>
    <rect class="st38" x="223.88" y="492.48" width="33.75" height="62.63" rx="10" ry="10"/>
    <rect class="st28" x="223.88" y="492.48" width="33.75" height="62.63" rx="10" ry="10"/>
  </g>
  <g>
    <rect class="st38" x="16.91" y="101.9" width="33.75" height="49.92" rx="10" ry="10"/>
    <rect class="st28" x="16.91" y="101.9" width="33.75" height="49.92" rx="10" ry="10"/>
  </g>
  <g>
    <rect class="st38" x="16.91" y="169.04" width="33.75" height="50.62" rx="10" ry="10"/>
    <rect class="st28" x="16.91" y="169.04" width="33.75" height="50.62" rx="10" ry="10"/>
  </g>
  <g>
    <rect class="st38" x="16.91" y="240.81" width="33.75" height="50.62" rx="10" ry="10"/>
    <rect class="st28" x="16.91" y="240.81" width="33.75" height="50.62" rx="10" ry="10"/>
  </g>
  <g>
    <rect class="st38" x="16.29" y="308.37" width="35" height="50.63" rx="10" ry="10"/>
    <rect class="st28" x="16.29" y="308.37" width="35" height="50.63" rx="10" ry="10"/>
  </g>
  <g>
    <rect class="st42" x="9.38" y="391.23" width="45" height="67.5" rx="10" ry="10"/>
    <rect class="st5" x="9.38" y="391.23" width="45" height="67.5" rx="10" ry="10"/>
  </g>
  <g>
    <rect class="st39" x="9.38" y="469.98" width="45" height="67.5" rx="10" ry="10"/>
    <rect class="st16" x="9.38" y="469.98" width="45" height="67.5" rx="10" ry="10"/>
  </g>
  <g>
    <rect class="st33" x="88.12" y="458.73" width="90" height="90" rx="10" ry="10"/>
    <rect class="st0" x="88.12" y="458.73" width="90" height="90" rx="10" ry="10"/>
  </g>
  <path class="st22" d="M110.88,383.2c0,9.32-7.56,16.88-16.87,16.88-6.21,0-11.92-3.67-14.78-8.72-.57-1-2.25-4.08-2.1-8.15.28-7.35,6.52-16.88,16.88-16.88,6.55,0,12.33,4.05,15.05,9.23.52,1,1.83,3.85,1.83,7.65Z"/>
  <rect class="st22" x="600.18" y="1.54" width="33.75" height="52.19"/>
  <g>
    <rect class="st38" x="652.44" y="-.49" width="78.75" height="29.69" rx="10" ry="10"/>
    <rect class="st28" x="652.44" y="-.49" width="78.75" height="29.69" rx="10" ry="10"/>
  </g>
  <g>
    <rect class="st38" x="749.69" y="-.49" width="53.74" height="29.69" rx="10" ry="10"/>
    <rect class="st28" x="749.69" y="-.49" width="53.74" height="29.69" rx="10" ry="10"/>
  </g>
  <g>
    <rect class="st38" x="828.12" y="-.49" width="101.25" height="29.69" rx="10" ry="10"/>
    <rect class="st28" x="828.12" y="-.49" width="101.25" height="29.69" rx="10" ry="10"/>
  </g>
  <g>
    <rect class="st38" x="505.9" y="14.35" width="71.04" height="33.75" rx="10" ry="10"/>
    <rect class="st28" x="505.9" y="14.35" width="71.04" height="33.75" rx="10" ry="10"/>
  </g>
  <rect class="st11" x="468.06" y="159.61" width="80.76" height="92.96"/>
  <rect class="st22" x="189.38" y="39.8" width="11.25" height="22.5"/>
  <rect class="st22" x="234.38" y="39.8" width="11.25" height="22.5"/>
  <rect class="st22" x="189.38" y="413.73" width="11.25" height="22.5"/>
  <rect class="st22" x="234.38" y="413.73" width="11.25" height="22.5"/>
  <rect class="st7" x="106.8" y="445.96" width="7.66" height="12.77"/>
  <rect class="st7" x="129.3" y="445.96" width="7.66" height="12.77"/>
  <rect class="st7" x="151.8" y="445.96" width="7.66" height="12.77"/>
  <rect class="st1" x="106.8" y="548.73" width="7.66" height="12.77"/>
  <rect class="st1" x="129.3" y="548.73" width="7.66" height="12.77"/>
  <rect class="st1" x="151.8" y="548.73" width="7.66" height="12.77"/>
  <rect class="st7" x="77.91" y="519.85" width="7.66" height="12.77" transform="translate(-444.49 607.97) rotate(-90)"/>
  <rect class="st7" x="77.91" y="497.35" width="7.66" height="12.77" transform="translate(-421.99 585.47) rotate(-90)"/>
  <rect class="st7" x="77.91" y="474.85" width="7.66" height="12.77" transform="translate(-399.49 562.97) rotate(-90)"/>
  <rect class="st1" x="180.68" y="474.85" width="7.66" height="12.77" transform="translate(665.74 296.72) rotate(90)"/>
  <rect class="st1" x="180.68" y="497.35" width="7.66" height="12.77" transform="translate(688.24 319.22) rotate(90)"/>
  <rect class="st1" x="180.68" y="519.85" width="7.66" height="12.77" transform="translate(710.74 341.72) rotate(90)"/>
  <g>
    <rect class="st40" x="21.53" y="105.75" width="24.51" height="42.21" rx="10" ry="10"/>
    <rect class="st27" x="21.53" y="105.75" width="24.51" height="42.21" rx="10" ry="10"/>
  </g>
  <g>
    <rect class="st40" x="21.53" y="173.25" width="24.51" height="42.21" rx="10" ry="10"/>
    <rect class="st27" x="21.53" y="173.25" width="24.51" height="42.21" rx="10" ry="10"/>
  </g>
  <g>
    <rect class="st40" x="21.53" y="245.01" width="24.51" height="42.21" rx="10" ry="10"/>
    <rect class="st27" x="21.53" y="245.01" width="24.51" height="42.21" rx="10" ry="10"/>
  </g>
  <g>
    <rect class="st40" x="21.53" y="312.58" width="24.51" height="42.21" rx="10" ry="10"/>
    <rect class="st27" x="21.53" y="312.58" width="24.51" height="42.21" rx="10" ry="10"/>
  </g>
  <g>
    <rect class="st41" x="96.48" y="467.17" width="73.28" height="73.12" rx="10" ry="10"/>
    <rect class="st30" x="96.48" y="467.17" width="73.28" height="73.12" rx="10" ry="10"/>
  </g>
  <g>
    <rect class="st40" x="229.62" y="500.77" width="22.28" height="46.72" rx="10" ry="10"/>
    <rect class="st27" x="229.62" y="500.77" width="22.28" height="46.72" rx="10" ry="10"/>
  </g>
  <rect class="st21" x="187.86" y="62.3" width="12.77" height="351.43"/>
  <rect class="st2" x="233.62" y="62.3" width="12.77" height="351.43"/>
  <g>
    <rect class="st32" x="17.68" y="402.48" width="27.22" height="47.81" rx="10" ry="10"/>
    <rect class="st14" x="17.68" y="402.48" width="27.22" height="47.81" rx="10" ry="10"/>
  </g>
  <g>
    <rect class="st34" x="15.91" y="479.31" width="30.75" height="48.43" rx="10" ry="10"/>
    <rect class="st20" x="15.91" y="479.31" width="30.75" height="48.43" rx="10" ry="10"/>
  </g>
  <g>
    <rect class="st33" x="286.76" y="444.67" width="121" height="95.62" rx="3" ry="3"/>
    <rect class="st0" x="286.76" y="444.67" width="121" height="95.62" rx="3" ry="3"/>
  </g>
  <rect class="st29" x="284.48" y="443.73" width="12.29" height="97.03"/>
  <g>
    <rect class="st38" x="116.38" y="576.85" width="56.79" height="38.04" rx="3" ry="3"/>
    <rect class="st28" x="116.38" y="576.85" width="56.79" height="38.04" rx="3" ry="3"/>
  </g>
  <g>
    <rect class="st37" x="115.98" y="575.99" width="56.79" height="17.74" rx="3" ry="3"/>
    <rect class="st8" x="115.98" y="575.99" width="56.79" height="17.74" rx="3" ry="3"/>
  </g>
  <g>
    <rect class="st42" x="200.11" y="576.85" width="56.79" height="38.04" rx="3" ry="3"/>
    <rect class="st5" x="200.11" y="576.85" width="56.79" height="38.04" rx="3" ry="3"/>
  </g>
  <g>
    <rect class="st32" x="200.11" y="575.99" width="56.79" height="17.74" rx="3" ry="3"/>
    <rect class="st14" x="200.11" y="575.99" width="56.79" height="17.74" rx="3" ry="3"/>
  </g>
  <g>
    <rect class="st38" x="287.88" y="576.85" width="56.79" height="38.04" rx="3" ry="3"/>
    <rect class="st28" x="287.88" y="576.85" width="56.79" height="38.04" rx="3" ry="3"/>
  </g>
  <g>
    <rect class="st37" x="287.88" y="575.99" width="56.79" height="17.74" rx="3" ry="3"/>
    <rect class="st8" x="287.88" y="575.99" width="56.79" height="17.74" rx="3" ry="3"/>
  </g>
  <rect class="st18" x="418.68" y="547.7" width="13.89" height="58.3"/>
  <rect class="st18" x="469.31" y="546.29" width="13.89" height="58.3"/>
  <rect class="st29" x="311.21" y="443.73" width="13.16" height="97.03"/>
  <rect class="st29" x="339.72" y="443.73" width="12.78" height="97.03"/>
  <rect class="st29" x="368.22" y="443.96" width="39.53" height="97.03"/>
  <rect class="st11" x="380.45" y="456.16" width="15.08" height="73.89"/>
  <g>
    <rect class="st37" x="538.12" y="516.89" width="371.25" height="26.33" rx="10" ry="10"/>
    <rect class="st8" x="538.12" y="516.89" width="371.25" height="26.33" rx="10" ry="10"/>
  </g>
  <g>
    <rect class="st37" x="538.12" y="554.47" width="371.25" height="26.33" rx="10" ry="10"/>
    <rect class="st8" x="538.12" y="554.47" width="371.25" height="26.33" rx="10" ry="10"/>
  </g>
  <rect class="st22" x="515.63" y="486.62" width="22.5" height="11.25"/>
  <rect class="st22" x="515.62" y="524.32" width="22.5" height="11.25"/>
  <rect class="st22" x="515.62" y="562.01" width="22.5" height="11.25"/>
  <rect class="st22" x="909.38" y="486.62" width="22.5" height="11.25"/>
  <rect class="st22" x="909.38" y="524.32" width="22.5" height="11.25"/>
  <rect class="st22" x="909.38" y="562.25" width="22.5" height="11.25"/>
  <g>
    <rect class="st32" x="562.22" y="487.98" width="22.81" height="10.27" rx="3" ry="3"/>
    <rect class="st14" x="562.22" y="487.98" width="22.81" height="10.27" rx="3" ry="3"/>
  </g>
  <g>
    <rect class="st32" x="605.65" y="487.6" width="22.81" height="10.27" rx="3" ry="3"/>
    <rect class="st14" x="605.65" y="487.6" width="22.81" height="10.27" rx="3" ry="3"/>
  </g>
  <g>
    <rect class="st32" x="649.08" y="487.98" width="22.81" height="10.27" rx="3" ry="3"/>
    <rect class="st14" x="649.08" y="487.98" width="22.81" height="10.27" rx="3" ry="3"/>
  </g>
  <g>
    <rect class="st32" x="691.81" y="487.98" width="22.81" height="10.27" rx="3" ry="3"/>
    <rect class="st14" x="691.81" y="487.98" width="22.81" height="10.27" rx="3" ry="3"/>
  </g>
  <g>
    <rect class="st32" x="733.15" y="487.98" width="22.81" height="10.27" rx="3" ry="3"/>
    <rect class="st14" x="733.15" y="487.98" width="22.81" height="10.27" rx="3" ry="3"/>
  </g>
  <g>
    <rect class="st32" x="774.38" y="487.98" width="22.81" height="10.27" rx="3" ry="3"/>
    <rect class="st14" x="774.38" y="487.98" width="22.81" height="10.27" rx="3" ry="3"/>
  </g>
  <g>
    <rect class="st32" x="815.6" y="487.35" width="22.81" height="10.27" rx="3" ry="3"/>
    <rect class="st14" x="815.6" y="487.35" width="22.81" height="10.27" rx="3" ry="3"/>
  </g>
  <g>
    <rect class="st32" x="856.82" y="487.11" width="22.81" height="10.27" rx="3" ry="3"/>
    <rect class="st14" x="856.82" y="487.11" width="22.81" height="10.27" rx="3" ry="3"/>
  </g>
  <g>
    <rect class="st32" x="562.22" y="524.92" width="22.81" height="10.27" rx="3" ry="3"/>
    <rect class="st14" x="562.22" y="524.92" width="22.81" height="10.27" rx="3" ry="3"/>
  </g>
  <g>
    <rect class="st32" x="605.65" y="524.92" width="22.81" height="10.27" rx="3" ry="3"/>
    <rect class="st14" x="605.65" y="524.92" width="22.81" height="10.27" rx="3" ry="3"/>
  </g>
  <g>
    <rect class="st32" x="649.08" y="524.81" width="22.81" height="10.27" rx="3" ry="3"/>
    <rect class="st14" x="649.08" y="524.81" width="22.81" height="10.27" rx="3" ry="3"/>
  </g>
  <g>
    <rect class="st32" x="691.81" y="524.81" width="22.81" height="10.27" rx="3" ry="3"/>
    <rect class="st14" x="691.81" y="524.81" width="22.81" height="10.27" rx="3" ry="3"/>
  </g>
  <g>
    <rect class="st32" x="732.8" y="524.81" width="22.81" height="10.27" rx="3" ry="3"/>
    <rect class="st14" x="732.8" y="524.81" width="22.81" height="10.27" rx="3" ry="3"/>
  </g>
  <g>
    <rect class="st32" x="774.2" y="524.92" width="22.81" height="10.27" rx="3" ry="3"/>
    <rect class="st14" x="774.2" y="524.92" width="22.81" height="10.27" rx="3" ry="3"/>
  </g>
  <g>
    <rect class="st32" x="815.6" y="524.92" width="22.81" height="10.27" rx="3" ry="3"/>
    <rect class="st14" x="815.6" y="524.92" width="22.81" height="10.27" rx="3" ry="3"/>
  </g>
  <g>
    <rect class="st32" x="856.82" y="524.92" width="22.81" height="10.27" rx="3" ry="3"/>
    <rect class="st14" x="856.82" y="524.92" width="22.81" height="10.27" rx="3" ry="3"/>
  </g>
  <g>
    <rect class="st32" x="560.47" y="562.5" width="22.81" height="10.27" rx="3" ry="3"/>
    <rect class="st14" x="560.47" y="562.5" width="22.81" height="10.27" rx="3" ry="3"/>
  </g>
  <g>
    <rect class="st32" x="604.11" y="562.74" width="22.81" height="10.27" rx="3" ry="3"/>
    <rect class="st14" x="604.11" y="562.74" width="22.81" height="10.27" rx="3" ry="3"/>
  </g>
  <g>
    <rect class="st32" x="646.98" y="562.25" width="22.81" height="10.27" rx="3" ry="3"/>
    <rect class="st14" x="646.98" y="562.25" width="22.81" height="10.27" rx="3" ry="3"/>
  </g>
  <g>
    <rect class="st32" x="689.85" y="562.5" width="22.81" height="10.27" rx="3" ry="3"/>
    <rect class="st14" x="689.85" y="562.5" width="22.81" height="10.27" rx="3" ry="3"/>
  </g>
  <g>
    <rect class="st32" x="732.8" y="562.74" width="22.81" height="10.27" rx="3" ry="3"/>
    <rect class="st14" x="732.8" y="562.74" width="22.81" height="10.27" rx="3" ry="3"/>
  </g>
  <g>
    <rect class="st32" x="774.2" y="562.74" width="22.81" height="10.27" rx="3" ry="3"/>
    <rect class="st14" x="774.2" y="562.74" width="22.81" height="10.27" rx="3" ry="3"/>
  </g>
  <g>
    <rect class="st32" x="815.07" y="562.74" width="22.81" height="10.27" rx="3" ry="3"/>
    <rect class="st14" x="815.07" y="562.74" width="22.81" height="10.27" rx="3" ry="3"/>
  </g>
  <g>
    <rect class="st32" x="855.94" y="562.74" width="22.81" height="10.27" rx="3" ry="3"/>
    <rect class="st14" x="855.94" y="562.74" width="22.81" height="10.27" rx="3" ry="3"/>
  </g>
  <circle class="st22" cx="344.32" cy="406.23" r="17.14"/>
  <circle class="st22" cx="391.88" cy="406.23" r="17.14"/>
  <path class="st11" d="M169.77,420.77"/>
  <rect class="st11" x="133.63" y="368.73" width="25.82" height="62.57"/>
  <polygon class="st12" points="133.63 392.4 159.45 433.36 133.63 433.36 133.63 392.4"/>
  <rect class="st11" x="68.63" y="408.93" width="50.75" height="27.3"/>
  <rect class="st29" x="74.29" y="414.88" width="39.42" height="16.96"/>
  <path class="st9" d="M38.62,383.2"/>
  <path class="st26" d="M281.59,396.21c6.83-8.41,19.64-9.4,27.38-2.68,7.33,6.36,8.06,17.84,1.1,25.39"/>
  <path class="st26" d="M79.82,373.21c6.34-8.18,18.28-9.12,25.51-2.56,6.84,6.21,7.54,17.4,1.07,24.73"/>
  <path class="st26" d="M328.77,396.39c6.7-8.34,19.28-9.31,26.88-2.65,7.2,6.31,7.92,17.69,1.09,25.17"/>
  <path class="st26" d="M378.04,394.98c6.77-8.39,18.89-8.83,25.91-1.55,6.65,6.9,6.87,18.8,0,26.29"/>
  <g>
    <rect class="st42" x="433.54" y="380.52" width="99.86" height="30.9" rx="3" ry="3"/>
    <rect class="st5" x="433.54" y="380.52" width="99.86" height="30.9" rx="3" ry="3"/>
  </g>
  <g>
    <rect class="st32" x="446.25" y="389.84" width="37.5" height="12.27" rx="3" ry="3"/>
    <rect class="st14" x="446.25" y="389.84" width="37.5" height="12.27" rx="3" ry="3"/>
  </g>
  <g>
    <rect class="st32" x="494.24" y="389.99" width="25.04" height="12.27" rx="3" ry="3"/>
    <rect class="st14" x="494.24" y="389.99" width="25.04" height="12.27" rx="3" ry="3"/>
  </g>
  <circle class="st29" cx="507.56" cy="323.73" r="36.93"/>
  <ellipse class="st3" cx="507.56" cy="323.73" rx="31.41" ry="30.25"/>
  <circle class="st22" cx="507.56" cy="323.73" r="22.5"/>
  <circle class="st26" cx="507.56" cy="323.73" r="17.11"/>
  <rect class="st17" x="32.72" y="574.13" width="6.08" height="50.22" transform="translate(543.27 919.87) rotate(125.7)"/>
  <rect class="st17" x="5.72" y="576.39" width="5.88" height="17.33" transform="translate(593.72 576.39) rotate(90)"/>
  <rect class="st17" x="56.67" y="540.19" width="6.09" height="95.61" transform="translate(572.07 882.62) rotate(125.7)"/>
  <rect class="st17" x="7.46" y="547.87" width="6.38" height="23.86" transform="translate(570.45 549.14) rotate(90)"/>
  <polygon class="st17" points="58.1 611.42 54.37 616.36 65.05 616.36 58.1 611.42"/>
  <polygon class="st17" points="100.31 613.9 96.48 618.82 107.44 618.82 100.31 613.9"/>
  <circle class="st2" cx="291.57" cy="344.82" r="3.98"/>
  <circle class="st2" cx="291.57" cy="359.14" r="4.1"/>
  <circle class="st2" cx="308.29" cy="344.82" r="3.98"/>
  <circle class="st2" cx="308.04" cy="359.4" r="3.98"/>
  <circle class="st2" cx="324.52" cy="344.82" r="3.98"/>
  <circle class="st2" cx="324.52" cy="359.4" r="3.98"/>
  <circle class="st2" cx="340.74" cy="344.82" r="3.98"/>
  <circle class="st2" cx="340.08" cy="359.14" r="3.98"/>
  <circle class="st2" cx="356.48" cy="344.82" r="3.98"/>
  <circle class="st2" cx="356.48" cy="359.14" r="3.98"/>
  <circle class="st2" cx="371.79" cy="344.82" r="3.98"/>
  <circle class="st2" cx="371.79" cy="359.4" r="3.98"/>
  <circle class="st2" cx="387.99" cy="344.82" r="3.98"/>
  <circle class="st2" cx="387.99" cy="359.14" r="3.98"/>
  <circle class="st2" cx="404.18" cy="344.82" r="3.98"/>
  <circle class="st2" cx="404.18" cy="359.14" r="3.98"/>
  <circle class="st2" cx="420.37" cy="344.82" r="3.98"/>
  <circle class="st2" cx="420.37" cy="359.4" r="3.98"/>
  <circle class="st2" cx="435.23" cy="344.82" r="3.98"/>
  <circle class="st2" cx="435.23" cy="359.14" r="3.98"/>
  <circle class="st21" cx="290.62" cy="301.23" r="3.98"/>
  <circle class="st21" cx="290.63" cy="314.93" r="3.98"/>
  <circle class="st21" cx="308.29" cy="301.23" r="3.98"/>
  <circle class="st21" cx="308.29" cy="315.12" r="3.98"/>
  <circle class="st21" cx="324.77" cy="301.23" r="3.98"/>
  <circle class="st21" cx="324.38" cy="314.93" r="3.98"/>
  <circle class="st21" cx="340.74" cy="301.23" r="3.98"/>
  <circle class="st21" cx="340.74" cy="315.12" r="3.98"/>
  <circle class="st21" cx="356.48" cy="301.23" r="3.98"/>
  <circle class="st21" cx="356.48" cy="315.12" r="3.98"/>
  <circle class="st21" cx="372.49" cy="301.23" r="3.98"/>
  <circle class="st21" cx="372.49" cy="315.12" r="3.98"/>
  <circle class="st21" cx="404.18" cy="315.12" r="3.98"/>
  <circle class="st21" cx="387.99" cy="315.12" r="3.98"/>
  <circle class="st21" cx="420.37" cy="315.12" r="3.98"/>
  <circle class="st21" cx="436.56" cy="314.93" r="3.98"/>
  <circle class="st21" cx="387.99" cy="301.23" r="3.98"/>
  <circle class="st21" cx="404.18" cy="301.23" r="3.98"/>
  <circle class="st21" cx="420.37" cy="301.23" r="3.98"/>
  <circle class="st21" cx="436.56" cy="301.23" r="3.98"/>
  <rect class="st21" x="287.17" y="173.25" width="22.83" height="8.03"/>
  <path class="st26" d="M224.32,454.69c6.83-8.41,19.64-9.4,27.38-2.68,7.33,6.36,8.06,17.84,1.1,25.39"/>
  <rect class="st21" x="287.17" y="185.47" width="22.83" height="8.03"/>
  <rect class="st21" x="286.83" y="198.07" width="22.83" height="8.03"/>
  <rect class="st21" x="286.83" y="210.7" width="22.83" height="8.03"/>
  <rect class="st21" x="286.83" y="223.32" width="22.83" height="8.03"/>
  <rect class="st21" x="286.83" y="235.49" width="22.83" height="8.03"/>
  <rect class="st21" x="286.83" y="247.66" width="22.83" height="8.03"/>
  <rect class="st21" x="286.83" y="260.29" width="22.83" height="8.03"/>
  <g>
    <rect class="st35" x="335.62" y="166.19" width="38.42" height="108.6" rx="10" ry="10"/>
    <rect class="st13" x="335.62" y="166.19" width="38.42" height="108.6" rx="10" ry="10"/>
  </g>
  <rect class="st21" x="343.42" y="172.88" width="22.83" height="8.03"/>
  <rect class="st21" x="343.42" y="185.47" width="22.83" height="8.03"/>
  <rect class="st21" x="343.42" y="198.07" width="22.83" height="8.03"/>
  <rect class="st21" x="343.42" y="210.7" width="22.83" height="8.03"/>
  <rect class="st21" x="343.42" y="223.42" width="22.83" height="8.03"/>
  <rect class="st21" x="343.42" y="235.49" width="22.83" height="8.03"/>
  <rect class="st21" x="343.42" y="247.66" width="22.83" height="8.03"/>
  <rect class="st21" x="343.42" y="259.71" width="22.83" height="8.03"/>
  <g>
    <rect class="st41" x="408.45" y="226.66" width="34.34" height="36.63" rx="10" ry="10"/>
    <rect class="st30" x="408.45" y="226.66" width="34.34" height="36.63" rx="10" ry="10"/>
  </g>
  <rect class="st2" x="401.77" y="149.01" width="12.77" height="51.31"/>
  <circle class="st22" cx="530.06" cy="447.6" r="17.14"/>
  <path class="st26" d="M515.67,437.35c6.33-8.6,18.83-10.09,26.69-3.75,7.44,6,8.63,17.32,2.13,25.07"/>
  <circle class="st22" cx="404.18" cy="101.57" r="17.14"/>
  <circle class="st22" cx="442.88" cy="126.59" r="17.14"/>
  <path class="st26" d="M389.18,92.09c6.33-8.6,18.83-10.09,26.69-3.75,7.44,6,8.63,17.32,2.13,25.07"/>
  <path class="st26" d="M426.96,117.1c6.33-8.6,18.83-10.09,26.69-3.75,7.44,6,8.63,17.32,2.13,25.07"/>
  <rect class="st11" x="468.06" y="146.72" width="19.39" height="15.91"/>
  <rect class="st11" x="529.28" y="146.72" width="19.39" height="16.49"/>
  <rect class="st11" x="468.06" y="250.26" width="16.74" height="13.47"/>
  <rect class="st11" x="532.2" y="250.26" width="16.46" height="14.04"/>
  <rect class="st11" x="498.74" y="250.21" width="19.39" height="25.72"/>
  <rect class="st29" x="468.06" y="145.97" width="19.39" height="3.38"/>
  <rect class="st29" x="529.28" y="145.97" width="19.39" height="3.38"/>
  <circle class="st29" cx="477.45" cy="154.97" r="2.47"/>
  <circle class="st29" cx="538.97" cy="154.97" r="2.47"/>
  <circle class="st29" cx="476.42" cy="257.28" r="2.47"/>
  <circle class="st29" cx="540.45" cy="256.99" r="2.47"/>
  <rect class="st23" x="477.16" y="170.97" width="62.55" height="74"/>
  <rect class="st29" x="477.21" y="171.01" width="62.55" height="4.48"/>
  <rect class="st29" x="477.16" y="180.91" width="62.55" height="4.48"/>
  <rect class="st29" x="477.16" y="190.92" width="62.55" height="4.48"/>
  <rect class="st29" x="477.16" y="200.93" width="62.55" height="4.48"/>
  <rect class="st29" x="477.16" y="210.61" width="62.55" height="4.48"/>
  <rect class="st29" x="477.21" y="220.57" width="62.55" height="4.48"/>
  <rect class="st29" x="477.16" y="230.41" width="62.55" height="4.48"/>
  <rect class="st29" x="477.16" y="240.31" width="62.55" height="4.48"/>
  <rect class="st29" x="498.5" y="253.28" width="19.64" height="23.74"/>
  <rect class="st11" x="502.1" y="266.26" width="12.42" height="6.84"/>
  <rect class="st4" x="498.74" y="136.18" width="7.16" height="22.3"/>
  <rect class="st4" x="513.41" y="136.18" width="7.27" height="22.3"/>
  <rect class="st4" x="498.5" y="128.68" width="139.2" height="7.5"/>
  <rect class="st17" x="82" y="-14.83" width="7.52" height="119.73" transform="translate(130.8 -40.73) rotate(90)"/>
  <rect class="st17" x="161.1" y="-5.67" width="6.98" height="60.13" transform="translate(268.54 154.31) rotate(-137.1)"/>
  <rect class="st17" x="12.18" y="37.09" width="6.73" height="31.9" transform="translate(49.87 9.72) rotate(54.72)"/>
  <rect class="st17" x="7.09" y="18.9" width="7.32" height="21.24" transform="translate(28.64 3.69) rotate(54.72)"/>
  <rect class="st17" x="70.06" y="-32.74" width="7.37" height="113.66" transform="translate(97.83 -49.66) rotate(90)"/>
  <rect class="st17" x="136.06" y="-1.79" width="6.83" height="30.72" transform="translate(232.4 118.47) rotate(-137.1)"/>
  <polygon class="st17" points="-.03 41.09 4.19 38.64 -.03 32.67 -.03 41.09"/>
  <polygon class="st17" points="0 67.74 4.47 65 .58 59.51 0 67.74"/>
  <polygon class="st17" points="155.94 0 152.43 4.65 147.43 0 155.94 0"/>
  <polygon class="st17" points="192.71 0 187.6 4.75 182.49 0 192.71 0"/>
  <path class="st17" d="M91.6-16"/>
  <path class="st17" d="M139.47,91.01"/>
  <g>
    <rect class="st31" x="74.73" y="64.15" width="33.75" height="294.16" rx="10" ry="10"/>
    <rect class="st15" x="74.73" y="64.15" width="33.75" height="294.16" rx="10" ry="10"/>
  </g>
  <g>
    <rect class="st39" x="64.87" y="63.32" width="33.75" height="294.16" rx="10" ry="10"/>
    <rect class="st16" x="64.87" y="63.32" width="33.75" height="294.16" rx="10" ry="10"/>
  </g>
  <rect class="st2" x="75.4" y="63.62" width="12.68" height="294.16"/>
  <g>
    <rect class="st31" x="131.29" y="64.15" width="33.75" height="294.16" rx="10" ry="10"/>
    <rect class="st15" x="131.29" y="64.15" width="33.75" height="294.16" rx="10" ry="10"/>
  </g>
  <g>
    <rect class="st35" x="120.08" y="63.64" width="33.75" height="295.18" rx="10" ry="10"/>
    <rect class="st13" x="120.08" y="63.64" width="33.75" height="295.18" rx="10" ry="10"/>
  </g>
  <rect class="st21" x="130.08" y="63.64" width="13.76" height="295.18"/>
  <rect class="st17" x="549.19" y="25.5" width="7.63" height="169.88" transform="translate(663.44 -442.56) rotate(90)"/>
  <rect class="st17" x="554.79" y="9.05" width="7.77" height="158.53" transform="translate(647 -470.35) rotate(90)"/>
  <rect class="st17" x="398.44" y="-30.03" width="8.3" height="173.79" transform="translate(695.7 -224.92) rotate(128.09)"/>
  <rect class="st17" x="423.33" y="-23.01" width="7.73" height="138.75" transform="translate(727.21 -261.26) rotate(128.09)"/>
  <rect class="st29" x="441.94" y="439.38" width="32.59" height="79.87"/>
  <rect class="st11" x="451.67" y="448.96" width="13.14" height="32.26"/>
  <rect class="st11" x="452.78" y="493.64" width="10.91" height="14.28"/>
  <rect class="st17" x="745.38" y="389.98" width="7.37" height="421.87" transform="translate(1349.98 -148.15) rotate(90)"/>
  <rect class="st17" x="520.18" y="589.63" width="7.37" height="34.48" transform="translate(901.76 -100.18) rotate(68.92)"/>
  <circle class="st22" cx="856.82" cy="269.69" r="17.14"/>
  <circle class="st22" cx="856.82" cy="319.1" r="17.14"/>
  <circle class="st22" cx="856.82" cy="368.07" r="17.14"/>
  <circle class="st22" cx="906.56" cy="269.69" r="17.14"/>
  <circle class="st22" cx="906.56" cy="318.88" r="17.14"/>
  <circle class="st22" cx="906.56" cy="368.07" r="17.14"/>
  <path class="st26" d="M841.88,259.43c6.33-8.6,18.83-10.09,26.69-3.75,7.44,6,8.63,17.32,2.13,25.07"/>
  <path class="st26" d="M841.88,309.01c6.33-8.6,18.83-10.09,26.69-3.75,7.44,6,8.63,17.32,2.13,25.07"/>
  <path class="st26" d="M841.73,357.85c6.42-8.17,19.03-9.64,26.91-3.69,7.46,5.63,8.61,16.34,2.02,23.7"/>
  <path class="st26" d="M893.42,259.32c5.6-9.02,16.86-10.43,24.04-3.62,6.8,6.45,8.02,18.46,2.26,26.57"/>
  <path class="st26" d="M894.45,307.86c5.62-8.58,16.86-9.97,23.99-3.53,6.75,6.09,7.93,17.49,2.14,25.21"/>
  <path class="st26" d="M892.85,356.28c6.33-8.6,18.83-10.09,26.69-3.75,7.44,6,8.63,17.32,2.13,25.07"/>
  <circle class="st19" cx="585.03" cy="275.59" r="6.17"/>
  <circle class="st19" cx="738.97" cy="277.02" r="6.17"/>
  <circle class="st19" cx="585.03" cy="429.7" r="6.17"/>
  <circle class="st19" cx="738.97" cy="429.7" r="6.17"/>
  <rect class="st19" x="646.42" y="262.33" width="5.31" height="21.56"/>
  <rect class="st19" x="669.23" y="262.33" width="5.31" height="21.56"/>
  <rect class="st19" x="571.87" y="338.23" width="20.94" height="5.23"/>
  <rect class="st19" x="572.11" y="361.58" width="20.7" height="5.23"/>
  <rect class="st19" x="730.24" y="338.23" width="21.17" height="5.23"/>
  <rect class="st19" x="730.24" y="361.58" width="21.17" height="5.23"/>
  <rect class="st19" x="646.42" y="422.43" width="5.31" height="21.56"/>
  <rect class="st19" x="671.54" y="422.43" width="5.31" height="21.56"/>
  <path class="st25" d="M658.38,243.52"/>
  <circle class="st6" cx="604.28" cy="293.48" r="2.98"/>
  <circle class="st6" cx="615.46" cy="293.48" r="2.98"/>
  <circle class="st6" cx="626.64" cy="293.48" r="2.98"/>
  <circle class="st6" cx="637.82" cy="293.48" r="2.98"/>
  <circle class="st6" cx="649.01" cy="293.48" r="2.98"/>
  <circle class="st6" cx="660.52" cy="293.48" r="2.98"/>
  <circle class="st6" cx="672.03" cy="293.48" r="2.98"/>
  <circle class="st6" cx="683.54" cy="293.48" r="2.98"/>
  <circle class="st6" cx="695.05" cy="293.48" r="2.98"/>
  <circle class="st6" cx="707.59" cy="293.48" r="2.98"/>
  <circle class="st6" cx="718.94" cy="293.48" r="2.98"/>
  <circle class="st6" cx="604.06" cy="303.13" r="2.98"/>
  <circle class="st6" cx="615.47" cy="303.46" r="2.98"/>
  <circle class="st6" cx="626.66" cy="303.46" r="2.98"/>
  <circle class="st6" cx="637.86" cy="303.46" r="2.98"/>
  <circle class="st6" cx="649.08" cy="303.13" r="2.98"/>
  <circle class="st6" cx="660.55" cy="303.46" r="2.98"/>
  <circle class="st6" cx="672.14" cy="303.46" r="2.98"/>
  <circle class="st6" cx="683.72" cy="303.46" r="2.98"/>
  <circle class="st6" cx="649.08" cy="312.76" r="2.98"/>
  <circle class="st6" cx="649.08" cy="322.08" r="2.98"/>
  <circle class="st6" cx="660.55" cy="312.76" r="2.98"/>
  <circle class="st6" cx="660.55" cy="322.08" r="2.98"/>
  <circle class="st6" cx="672.14" cy="312.76" r="2.98"/>
  <circle class="st6" cx="672.14" cy="322.08" r="2.98"/>
  <circle class="st6" cx="683.54" cy="312.76" r="2.98"/>
  <circle class="st6" cx="695.05" cy="303.46" r="2.98"/>
  <circle class="st6" cx="695.05" cy="312.76" r="2.98"/>
  <circle class="st6" cx="683.54" cy="322.08" r="2.98"/>
  <circle class="st6" cx="695.05" cy="322.08" r="2.98"/>
  <circle class="st6" cx="707.59" cy="303.46" r="2.98"/>
  <circle class="st6" cx="718.94" cy="303.46" r="2.98"/>
  <circle class="st6" cx="707.59" cy="312.48" r="2.98"/>
  <circle class="st6" cx="707.59" cy="322.08" r="2.98"/>
  <circle class="st6" cx="718.94" cy="312.76" r="2.98"/>
  <circle class="st6" cx="718.94" cy="322.08" r="2.98"/>
  <circle class="st6" cx="637.86" cy="312.76" r="2.98"/>
  <circle class="st6" cx="626.66" cy="312.76" r="2.98"/>
  <circle class="st6" cx="615.46" cy="312.76" r="2.98"/>
  <circle class="st6" cx="604.28" cy="312.76" r="2.98"/>
  <circle class="st6" cx="637.86" cy="322.08" r="2.98"/>
  <circle class="st6" cx="626.64" cy="322.08" r="2.98"/>
  <circle class="st6" cx="615.52" cy="322.08" r="2.98"/>
  <circle class="st6" cx="604.28" cy="322.08" r="2.98"/>
  <circle class="st6" cx="604.06" cy="331.98" r="2.98"/>
  <circle class="st6" cx="615.46" cy="331.98" r="2.98"/>
  <circle class="st6" cx="626.64" cy="331.98" r="2.98"/>
  <circle class="st6" cx="604.28" cy="341.84" r="2.98"/>
  <circle class="st6" cx="615.52" cy="341.84" r="2.98"/>
  <circle class="st6" cx="626.66" cy="341.84" r="2.98"/>
  <circle class="st6" cx="604.06" cy="351.85" r="2.98"/>
  <circle class="st6" cx="615.52" cy="351.85" r="2.98"/>
  <circle class="st6" cx="626.66" cy="351.85" r="2.98"/>
  <circle class="st6" cx="604.28" cy="361.58" r="2.98"/>
  <circle class="st6" cx="604.06" cy="371.31" r="2.98"/>
  <circle class="st6" cx="604.28" cy="380.52" r="2.98"/>
  <circle class="st6" cx="604.06" cy="390.31" r="2.98"/>
  <circle class="st6" cx="604.28" cy="400.67" r="2.98"/>
  <circle class="st6" cx="604.06" cy="411.42" r="2.98"/>
  <circle class="st6" cx="615.52" cy="362.09" r="2.98"/>
  <circle class="st6" cx="626.2" cy="361.58" r="2.98"/>
  <circle class="st6" cx="615.52" cy="371.31" r="2.98"/>
  <circle class="st6" cx="615.52" cy="380.52" r="2.98"/>
  <circle class="st6" cx="626.66" cy="371.31" r="2.98"/>
  <circle class="st6" cx="626.2" cy="380.77" r="2.98"/>
  <circle class="st6" cx="615.52" cy="390.31" r="2.98"/>
  <circle class="st6" cx="626.66" cy="390.31" r="2.98"/>
  <circle class="st6" cx="615.52" cy="400.67" r="2.98"/>
  <circle class="st6" cx="626.64" cy="400.67" r="2.98"/>
  <circle class="st6" cx="615.52" cy="411.42" r="2.98"/>
  <circle class="st6" cx="626.64" cy="411.42" r="2.98"/>
  <circle class="st6" cx="637.86" cy="380.52" r="2.98"/>
  <circle class="st6" cx="649.01" cy="380.42" r="2.98"/>
  <circle class="st6" cx="661.03" cy="380.77" r="2.98"/>
  <circle class="st6" cx="671.89" cy="380.42" r="2.98"/>
  <circle class="st6" cx="683.72" cy="380.77" r="2.98"/>
  <circle class="st6" cx="695.05" cy="380.42" r="2.98"/>
  <circle class="st6" cx="695.05" cy="331.84" r="2.98"/>
  <circle class="st6" cx="695.05" cy="341.84" r="2.98"/>
  <circle class="st6" cx="695.05" cy="351.42" r="2.98"/>
  <circle class="st6" cx="695.05" cy="361.23" r="2.98"/>
  <circle class="st6" cx="695.05" cy="371.03" r="2.98"/>
  <circle class="st6" cx="707.59" cy="331.98" r="2.98"/>
  <circle class="st6" cx="718.94" cy="331.98" r="2.98"/>
  <circle class="st6" cx="707.59" cy="341.84" r="2.98"/>
  <circle class="st6" cx="718.94" cy="341.84" r="2.98"/>
  <circle class="st6" cx="707.59" cy="351.85" r="2.98"/>
  <circle class="st6" cx="718.94" cy="351.85" r="2.98"/>
  <circle class="st6" cx="707.59" cy="361.58" r="2.98"/>
  <circle class="st6" cx="718.94" cy="361.65" r="2.98"/>
  <circle class="st6" cx="707.59" cy="371.31" r="2.98"/>
  <circle class="st6" cx="718.94" cy="371.31" r="2.98"/>
  <circle class="st6" cx="707.61" cy="380.42" r="2.98"/>
  <circle class="st6" cx="718.94" cy="380.77" r="2.98"/>
  <circle class="st6" cx="637.86" cy="389.99" r="2.98"/>
  <circle class="st6" cx="649.08" cy="389.84" r="2.98"/>
  <circle class="st6" cx="661.03" cy="389.84" r="2.98"/>
  <circle class="st6" cx="672.14" cy="389.84" r="2.98"/>
  <circle class="st6" cx="683.82" cy="389.84" r="2.98"/>
  <circle class="st6" cx="695.05" cy="389.84" r="2.98"/>
  <circle class="st6" cx="707.59" cy="390.31" r="2.98"/>
  <circle class="st6" cx="718.94" cy="390.31" r="2.98"/>
  <circle class="st6" cx="637.86" cy="400.67" r="2.98"/>
  <circle class="st6" cx="649.08" cy="400.67" r="2.98"/>
  <circle class="st6" cx="661.03" cy="400.67" r="2.98"/>
  <circle class="st6" cx="671.54" cy="400.67" r="2.98"/>
  <circle class="st6" cx="683.82" cy="400.67" r="2.98"/>
  <circle class="st6" cx="694.88" cy="400.67" r="2.98"/>
  <circle class="st6" cx="707.61" cy="400.67" r="2.98"/>
  <circle class="st6" cx="719.19" cy="400.67" r="2.98"/>
  <circle class="st6" cx="637.86" cy="411.42" r="2.98"/>
  <circle class="st6" cx="649.01" cy="411.42" r="2.98"/>
  <circle class="st6" cx="661.03" cy="411.42" r="2.98"/>
  <circle class="st6" cx="671.54" cy="411.42" r="2.98"/>
  <circle class="st6" cx="683.72" cy="411.42" r="2.98"/>
  <circle class="st6" cx="695.05" cy="411.42" r="2.98"/>
  <circle class="st6" cx="707.59" cy="411.09" r="2.98"/>
  <circle class="st6" cx="718.94" cy="411.09" r="2.98"/>
  <rect class="st21" x="625.72" y="328.83" width="69.66" height="49.8"/>
  <rect class="st24" x="631.32" y="334.28" width="56.99" height="39.18"/>
  <polygon class="st6" points="631.43 334.41 631.43 373.8 687.13 373.8 631.43 334.41"/>
  <rect class="st21" x="287.59" y="115.6" width="71.58" height="21.99"/>
  <rect class="st24" x="295.62" y="122.51" width="27.76" height="8.17"/>
  <rect class="st24" x="335.64" y="122.77" width="15.56" height="8.17"/>
</svg>