<?xml version="1.0" encoding="UTF-8"?>
<svg id="Layer_1" xmlns="http://www.w3.org/2000/svg" version="1.1" viewBox="0 0 1920 1080">
  <!-- Generator: Adobe Illustrator 30.3.0, SVG Export Plug-In . SVG Version: 2.1.3 Build 182)  -->
  <defs>
    <style>
      .st0 {
        font-size: 126px;
      }

      .st1 {
        fill: #ffa815;
      }

      .st1, .st2, .st3, .st4, .st5, .st6, .st7, .st8, .st9, .st10, .st11, .st12, .st13, .st14, .st15, .st16, .st17, .st18, .st19, .st20, .st21, .st22, .st23, .st24, .st25, .st26, .st27, .st28 {
        stroke-miterlimit: 10;
      }

      .st1, .st19 {
        stroke: #ffa215;
      }

      .st2 {
        fill: #66f900;
      }

      .st2, .st5, .st13, .st27 {
        stroke: #66f900;
      }

      .st3, .st6, .st16 {
        stroke: #ffcc15;
      }

      .st3, .st26 {
        fill: #ffcc15;
      }

      .st4, .st18, .st25 {
        stroke: #00bb5d;
      }

      .st4, .st24 {
        fill: #00ba9d;
      }

      .st29 {
        fill: #0028cb;
      }

      .st5, .st22 {
        fill: #ff0;
      }

      .st6 {
        fill: #ffb315;
      }

      .st7 {
        fill: #86f4bf;
        stroke: #00e333;
      }

      .st8 {
        stroke: #0048ff;
      }

      .st8, .st14 {
        fill: #0062ff;
      }

      .st9 {
        fill: #0098ff;
      }

      .st9, .st15, .st23 {
        stroke: #0080ff;
      }

      .st10 {
        fill: #ff639e;
        stroke: #ff1dbf;
      }

      .st11 {
        stroke: #0028ff;
      }

      .st11, .st15 {
        fill: #0028ff;
      }

      .st30 {
        font-family: SansSerifCollection, 'Sans Serif Collection';
      }

      .st12 {
        fill: #0080ff;
        stroke: #0098ff;
      }

      .st13 {
        fill: #6ef900;
      }

      .st14, .st24 {
        stroke: #00f4ff;
      }

      .st16 {
        fill: #ffa315;
      }

      .st17 {
        fill: #ff8dac;
        stroke: #ff5974;
      }

      .st18 {
        fill: #00ba5d;
      }

      .st19 {
        fill: #ffa215;
      }

      .st20 {
        fill: #00bb5d;
        stroke: #00ba5d;
      }

      .st21 {
        fill: #ff059e;
        stroke: #d400cd;
      }

      .st31 {
        font-size: 102px;
      }

      .st22 {
        stroke: #ffeb15;
      }

      .st23 {
        fill: #0064ff;
      }

      .st25 {
        fill: #008f5d;
      }

      .st26 {
        stroke: #ffb315;
      }

      .st27 {
        fill: #f2f2f2;
        opacity: .57;
      }

      .st28 {
        fill: #3fa9f5;
        stroke: #00b0ff;
      }
    </style>
  </defs>
  <polygon class="st28" points="1198.05 918.23 1303.53 774.4 729.56 230.56 1132.3 1007.27 1198.05 918.23"/>
  <polygon class="st17" points="1100.79 79.88 729.56 230.56 1303.53 774.4 1100.79 79.88"/>
  <polygon class="st10" points="756.96 0 729.56 230.56 1100.79 79.88 992.58 0 756.96 0"/>
  <polygon class="st21" points="1274.08 0 1102.85 79.88 994.63 0 1274.08 0"/>
  <polygon class="st5" points="729.56 230.56 377.51 522.34 1132.3 1007.27 729.56 230.56"/>
  <polygon class="st2" points="666.55 0 729.56 230.56 377.51 522.34 541.89 0 666.55 0"/>
  <polygon class="st22" points="756.96 0 729.56 230.56 666.55 0 756.96 0"/>
  <polygon class="st25" points="1100.79 79.88 1570.66 216.86 1303.53 774.4 1100.79 79.88"/>
  <polygon class="st19" points="1272.03 0 1539.15 0 1570.66 216.86 1100.79 79.88 1272.03 0"/>
  <polygon class="st26" points="1817.23 170.29 1670.66 0 1539.15 0 1570.66 216.86 1817.23 170.29"/>
  <polygon class="st12" points="1303.53 774.4 1008.5 768.52 1132.3 1007.27 1303.53 774.4"/>
  <path class="st12" d="M1539.15,378.51"/>
  <polygon class="st8" points="1132.3 1007.27 1376.14 1027.82 1303.53 774.4 1132.3 1007.27"/>
  <path class="st14" d="M1609.01,401.79"/>
  <polygon class="st24" points="1817.23 170.29 1570.66 216.86 1376.14 1027.82 1920 522.34 1817.23 170.29"/>
  <polygon class="st7" points="1920 797.68 1376.14 1027.82 1920 522.34 1920 797.68"/>
  <polygon class="st9" points="1670.66 0 1817.23 170.29 1920 522.34 1920 0 1670.66 0"/>
  <polygon class="st23" points="1376.14 1027.82 1920 992.21 1920 797.68 1376.14 1027.82"/>
  <polygon class="st9" points="1411.75 1080 1376.14 1027.82 1920 992.21 1920 1080 1411.75 1080"/>
  <path class="st15" d="M1804.9,912.75"/>
  <polygon class="st13" points="359.7 978.51 377.51 522.34 1132.3 1007.27 359.7 978.51"/>
  <polygon class="st4" points="1165.18 1080 1132.3 1007.27 359.7 978.51 359.7 1080 1165.18 1080"/>
  <polygon class="st18" points="1376.14 1027.82 1411.75 1080 1165.18 1080 1132.3 1007.27 1376.14 1027.82"/>
  <path class="st11" d="M1295.32,968.92"/>
  <polygon class="st20" points="1376.14 1027.82 1303.53 774.4 1570.66 216.86 1376.14 1027.82"/>
  <polygon class="st3" points="377.51 522.34 0 690.84 0 1080 359.7 1080 377.51 522.34"/>
  <polygon class="st6" points="167.92 0 377.51 522.34 0 690.84 0 0 167.92 0"/>
  <polygon class="st16" points="541.89 0 377.51 522.34 373.81 513.14 167.92 0 541.89 0"/>
  <polygon class="st19" points="75.09 657.32 372.89 666.83 359.7 1043.64 75.09 657.32"/>
  <polygon class="st1" points="377.51 522.34 0 412.75 0 690.84 377.51 522.34"/>
  <path class="st1" d="M1443.26,599.05"/>
  <rect class="st27" x="-.67" y="279.88" width="1921.34" height="498.63"/>
  <text class="st30" transform="translate(75.09 503.72)"><tspan class="st0"><tspan class="st29" x="0" y="0">HP</tspan><tspan x="169.6" y="0" xml:space="preserve"> PrintOS </tspan></tspan><tspan class="st31"><tspan x="0" y="122.4">WSU Vancouver 2026</tspan></tspan></text>
</svg>