<?xml version="1.0" encoding="UTF-8"?>
<svg id="Layer_1" xmlns="http://www.w3.org/2000/svg" version="1.1" viewBox="0 0 160 160">
  <!-- Generator: Adobe Illustrator 30.3.0, SVG Export Plug-In . SVG Version: 2.1.3 Build 182)  -->
  <defs>
    <style>
      .st0 {
        stroke: #000;
      }

      .st0, .st1, .st2, .st3, .st4, .st5, .st6, .st7, .st8 {
        stroke-miterlimit: 10;
        stroke-width: .25px;
      }

      .st1 {
        fill: #fc5;
        stroke: #fc5;
      }

      .st2 {
        fill: #ffb315;
        stroke: #ffb315;
      }

      .st3 {
        fill: #f2f2f2;
        stroke: #f2f2f2;
      }

      .st4 {
        fill: #cd8315;
        stroke: #cd8315;
      }

      .st5 {
        fill: #ffc3be;
        stroke: #ffc3be;
      }

      .st6 {
        fill: #29abe2;
        stroke: #29abe2;
      }

      .st7 {
        fill: #ed1c24;
        stroke: #ed1c24;
      }

      .st8 {
        fill: #0071bc;
        stroke: #0071bc;
      }
    </style>
  </defs>
  <polygon class="st7" points="-.22 26.55 26.45 -.12 -.22 -.12 -.22 26.55"/>
  <polygon class="st6" points="26.67 26.67 26.9 -.24 .24 26.43 26.67 26.67"/>
  <polygon class="st8" points="26.9 53.33 53.33 53.33 53.33 26.67 26.67 26.67 26.9 53.33"/>
  <rect class="st5" x="53.33" y="26.67" width="26.67" height="26.67"/>
  <polygon class="st7" points="53.33 26.67 80 0 53.33 0 53.33 26.67"/>
  <polygon class="st6" points="79.74 26.9 106.4 26.9 106.4 53.57 79.74 26.9"/>
  <polygon class="st7" points="80 53.33 80 26.67 106.67 53.33 80 53.33"/>
  <rect class="st2" x="80" y="0" width="26.67" height="26.67"/>
  <polygon class="st2" points="0 53.33 26.9 53.33 26.67 26.67 0 26.67 0 53.33"/>
  <rect class="st8" x="79.88" y="53.33" width="26.67" height="26.67"/>
  <rect class="st5" x="106.67" y="53.33" width="26.67" height="26.67"/>
  <rect class="st5" x="80" y="80" width="26.67" height="26.67"/>
  <polygon class="st7" points="26.67 80 26.9 53.33 0 53.33 0 80 26.67 80"/>
  <polygon class="st2" points="53.33 53.33 53.33 80 26.67 80 26.9 53.33 53.33 53.33"/>
  <path class="st2" d="M80,80"/>
  <rect class="st6" x="106.67" y="80" width="26.67" height="26.67"/>
  <rect class="st2" x="106.67" y="106.67" width="26.67" height="26.67"/>
  <polygon class="st7" points="133.33 26.67 160 0 133.33 0 133.33 26.67"/>
  <polygon class="st6" points="159.76 26.9 160 0 133.33 26.67 159.76 26.9"/>
  <polygon class="st2" points="133.1 53.33 160 53.33 159.76 26.67 133.1 26.67 133.1 53.33"/>
  <polygon class="st4" points="80 53.33 80 80 53.33 80 53.57 53.33 80 53.33"/>
  <polygon class="st4" points="79.9 80.12 79.9 106.79 53.24 106.79 53.47 80.12 79.9 80.12"/>
  <polygon class="st7" points="80 133.33 80.24 106.67 53.33 106.67 53.33 133.33 80 133.33"/>
  <polygon class="st5" points="0 106.67 26.67 80 0 80 0 106.67"/>
  <polygon class="st8" points="26.28 106.79 26.52 79.88 -.29 106.55 26.28 106.79"/>
  <polygon class="st8" points="133.57 106.67 160 106.67 160 80 133.33 80 133.57 106.67"/>
  <polygon class="st0" points="106.43 133.33 106.67 106.67 79.76 106.67 79.76 133.33 106.43 133.33"/>
  <polygon class="st7" points="133.33 133.33 160 106.67 133.33 106.67 133.33 133.33"/>
  <polygon class="st5" points="159.76 133.57 160 106.67 133.33 133.33 159.76 133.57"/>
  <rect class="st2" y="133.57" width="26.67" height="26.67"/>
  <rect class="st5" x="26.67" y="133.33" width="26.67" height="26.67"/>
  <rect class="st6" x="53.33" y="133.33" width="26.48" height="26.67"/>
  <polygon class="st8" points="133.45 160.24 159.88 160.24 159.88 133.57 133.21 133.57 133.45 160.24"/>
  <path class="st8" d="M37.29,8.88c0,1.56-1.25,2.83-2.78,2.83s-2.78-1.27-2.78-2.83,1.25-2.83,2.78-2.83,2.78,1.27,2.78,2.83Z"/>
  <path class="st8" d="M47.67,8.88c0,1.56-1.25,2.83-2.78,2.83s-2.78-1.27-2.78-2.83,1.25-2.83,2.78-2.83,2.78,1.27,2.78,2.83Z"/>
  <path class="st8" d="M37.29,17.61c0,1.56-1.25,2.83-2.78,2.83s-2.78-1.27-2.78-2.83,1.25-2.83,2.78-2.83,2.78,1.27,2.78,2.83Z"/>
  <path class="st8" d="M47.67,17.61c0,1.56-1.25,2.83-2.78,2.83s-2.78-1.27-2.78-2.83,1.25-2.83,2.78-2.83,2.78,1.27,2.78,2.83Z"/>
  <rect class="st5" x="87.32" y="7.73" width="11.5" height="11.45"/>
  <rect class="st6" x="106.95" y="-.06" width="26.1" height="3.04"/>
  <rect class="st6" x="106.95" y="5.52" width="26.1" height="3.04"/>
  <rect class="st6" x="106.95" y="11.93" width="26.1" height="3.04"/>
  <rect class="st6" x="106.95" y="17.66" width="26.1" height="3.04"/>
  <rect class="st6" x="106.95" y="23.63" width="26.1" height="3.04"/>
  <path class="st6" d="M18.78,40c0,2.82-2.44,5.11-5.45,5.11-3.01,0-5.45-2.29-5.45-5.11,0-2.82,2.44-5.11,5.45-5.11,3.01,0,5.45,2.29,5.45,5.11Z"/>
  <ellipse class="st7" cx="93.07" cy="93.33" rx="5.45" ry="5.11"/>
  <path class="st8" d="M117.57,62.45c0,1.56-1.25,2.83-2.78,2.83s-2.78-1.27-2.78-2.83,1.25-2.83,2.78-2.83,2.78,1.27,2.78,2.83Z"/>
  <path class="st8" d="M127.78,62.45c0,1.56-1.25,2.83-2.78,2.83s-2.78-1.27-2.78-2.83,1.25-2.83,2.78-2.83,2.78,1.27,2.78,2.83Z"/>
  <path class="st8" d="M117.57,71.82c0,1.56-1.25,2.83-2.78,2.83s-2.78-1.27-2.78-2.83,1.25-2.83,2.78-2.83,2.78,1.27,2.78,2.83Z"/>
  <path class="st8" d="M127.78,71.82c0,1.56-1.25,2.83-2.78,2.83s-2.78-1.27-2.78-2.83,1.25-2.83,2.78-2.83,2.78,1.27,2.78,2.83Z"/>
  <path class="st7" d="M129.25,93.33c0,5.09-4.14,9.22-9.25,9.22-5.11,0-9.25-4.13-9.25-9.22,0-5.09,4.14-9.22,9.25-9.22,5.11,0,9.25,4.13,9.25,9.22Z"/>
  <path class="st2" d="M125.45,93.33c0,2.82-2.44,5.11-5.45,5.11-3.01,0-5.45-2.29-5.45-5.11,0-2.82,2.44-5.11,5.45-5.11,3.01,0,5.45,2.29,5.45,5.11Z"/>
  <path class="st8" d="M44.89,120c0,2.82-2.44,5.11-5.45,5.11-3.01,0-5.45-2.29-5.45-5.11,0-2.82,2.44-5.11,5.45-5.11,3.01,0,5.45,2.29,5.45,5.11Z"/>
  <rect class="st6" x="0" y="106.79" width="26.67" height="26.67"/>
  <path class="st5" d="M114.59,33.47c0,.79-.58,1.42-1.29,1.42s-1.29-.64-1.29-1.42.58-1.42,1.29-1.42,1.29.64,1.29,1.42Z"/>
  <path class="st5" d="M126.74,33.47c0,.79-.58,1.42-1.29,1.42s-1.29-.64-1.29-1.42.58-1.42,1.29-1.42,1.29.64,1.29,1.42Z"/>
  <path class="st5" d="M81.27,78.56"/>
  <path class="st5" d="M120.67,33.47c0,.79-.58,1.42-1.29,1.42s-1.29-.64-1.29-1.42.58-1.42,1.29-1.42,1.29.64,1.29,1.42Z"/>
  <path class="st5" d="M114.59,40.24c0,.79-.58,1.42-1.29,1.42s-1.29-.64-1.29-1.42.58-1.42,1.29-1.42,1.29.64,1.29,1.42Z"/>
  <path class="st5" d="M120.67,40.24c0,.79-.58,1.42-1.29,1.42s-1.29-.64-1.29-1.42.58-1.42,1.29-1.42,1.29.64,1.29,1.42Z"/>
  <path class="st5" d="M126.74,40.24c0,.79-.58,1.42-1.29,1.42s-1.29-.64-1.29-1.42.58-1.42,1.29-1.42,1.29.64,1.29,1.42Z"/>
  <path class="st5" d="M114.59,46.53c0,.79-.58,1.42-1.29,1.42s-1.29-.64-1.29-1.42.58-1.42,1.29-1.42,1.29.64,1.29,1.42Z"/>
  <path class="st5" d="M120.67,46.53c0,.79-.58,1.42-1.29,1.42s-1.29-.64-1.29-1.42.58-1.42,1.29-1.42,1.29.64,1.29,1.42Z"/>
  <path class="st5" d="M126.74,46.53c0,.79-.58,1.42-1.29,1.42s-1.29-.64-1.29-1.42.58-1.42,1.29-1.42,1.29.64,1.29,1.42Z"/>
  <path class="st5" d="M7.57,140.37c0,.79-.58,1.42-1.29,1.42s-1.29-.64-1.29-1.42.58-1.42,1.29-1.42,1.29.64,1.29,1.42Z"/>
  <path class="st5" d="M19.72,140.37c0,.79-.58,1.42-1.29,1.42s-1.29-.64-1.29-1.42.58-1.42,1.29-1.42,1.29.64,1.29,1.42Z"/>
  <path class="st5" d="M13.64,140.37c0,.79-.58,1.42-1.29,1.42s-1.29-.64-1.29-1.42.58-1.42,1.29-1.42,1.29.64,1.29,1.42Z"/>
  <path class="st5" d="M7.57,147.14c0,.79-.58,1.42-1.29,1.42s-1.29-.64-1.29-1.42.58-1.42,1.29-1.42,1.29.64,1.29,1.42Z"/>
  <path class="st5" d="M13.64,147.14c0,.79-.58,1.42-1.29,1.42s-1.29-.64-1.29-1.42.58-1.42,1.29-1.42,1.29.64,1.29,1.42Z"/>
  <path class="st5" d="M19.72,147.14c0,.79-.58,1.42-1.29,1.42s-1.29-.64-1.29-1.42.58-1.42,1.29-1.42,1.29.64,1.29,1.42Z"/>
  <path class="st5" d="M7.57,153.44c0,.79-.58,1.42-1.29,1.42s-1.29-.64-1.29-1.42.58-1.42,1.29-1.42,1.29.64,1.29,1.42Z"/>
  <path class="st5" d="M13.64,153.44c0,.79-.58,1.42-1.29,1.42s-1.29-.64-1.29-1.42.58-1.42,1.29-1.42,1.29.64,1.29,1.42Z"/>
  <path class="st5" d="M19.72,153.44c0,.79-.58,1.42-1.29,1.42s-1.29-.64-1.29-1.42.58-1.42,1.29-1.42,1.29.64,1.29,1.42Z"/>
  <path class="st8" d="M125.45,120.12c0,2.82-2.44,5.11-5.45,5.11-3.01,0-5.45-2.29-5.45-5.11,0-2.82,2.44-5.11,5.45-5.11,3.01,0,5.45,2.29,5.45,5.11Z"/>
  <ellipse class="st7" cx="61.48" cy="143.64" rx="2.78" ry="2.83"/>
  <ellipse class="st8" cx="71.86" cy="143.64" rx="2.78" ry="2.83"/>
  <path class="st8" d="M64.26,152.37c0,1.56-1.25,2.83-2.78,2.83s-2.78-1.27-2.78-2.83,1.25-2.83,2.78-2.83,2.78,1.27,2.78,2.83Z"/>
  <path class="st7" d="M74.64,152.37c0,1.56-1.25,2.83-2.78,2.83s-2.78-1.27-2.78-2.83,1.25-2.83,2.78-2.83,2.78,1.27,2.78,2.83Z"/>
  <rect class="st6" x="85.72" y="113.03" width="15.46" height="14.18"/>
  <polygon class="st5" points="101.04 127.21 101.18 113.03 85.72 127.09 101.04 127.21"/>
  <rect class="st5" x="87.32" y="140.74" width="11.5" height="11.45"/>
  <rect class="st6" x="106.95" y="133.57" width="26.1" height="3.04"/>
  <rect class="st6" x="106.95" y="139.19" width="26.1" height="3.04"/>
  <rect class="st6" x="106.95" y="144.95" width="26.1" height="3.04"/>
  <rect class="st6" x="106.95" y="150.95" width="26.1" height="3.04"/>
  <rect class="st6" x="106.95" y="156.96" width="26.1" height="3.04"/>
  <path class="st4" d="M63.13,62.45"/>
  <path class="st4" d="M60.23,59.62"/>
  <ellipse class="st1" cx="53.31" cy="80.19" rx="23.09" ry="23.79"/>
  <polygon class="st2" points="53.19 53.39 53.19 80.06 26.52 80.06 26.76 53.39 53.19 53.39"/>
  <circle class="st4" cx="52.62" cy="80.28" r="20.9"/>
  <ellipse class="st1" cx="51.7" cy="79.46" rx="19.05" ry="18.39"/>
  <ellipse class="st4" cx="51.7" cy="79.46" rx="16.76" ry="15.84"/>
  <ellipse class="st1" cx="52.05" cy="79.46" rx="13.46" ry="13.1"/>
  <circle class="st4" cx="52.62" cy="79.46" r="10.59"/>
  <polygon class="st2" points="53.19 53.33 53.19 80 26.9 80 27.14 53.33 53.19 53.33"/>
  <path class="st6" d="M49.36,66.62c0,5.09-4.14,9.22-9.25,9.22-5.11,0-9.25-4.13-9.25-9.22,0-5.09,4.14-9.22,9.25-9.22,5.11,0,9.25,4.13,9.25,9.22Z"/>
  <rect class="st3" x="26.59" y="80.12" width="26.67" height="26.67"/>
  <rect class="st6" x="26.52" y="80.12" width="3.27" height="26.67"/>
  <rect class="st6" x="32.36" y="80" width="3.27" height="26.67"/>
  <rect class="st6" x="38.22" y="80.12" width="3.27" height="26.67"/>
  <rect class="st6" x="43.93" y="80.12" width="3.27" height="26.67"/>
  <rect class="st6" x="50.06" y="80" width="3.27" height="26.67"/>
</svg>