<?xml version="1.0" encoding="UTF-8"?>
<svg id="Layer_1" xmlns="http://www.w3.org/2000/svg" version="1.1" xmlns:xlink="http://www.w3.org/1999/xlink" viewBox="0 0 1920 1080">
  <!-- Generator: Adobe Illustrator 30.3.0, SVG Export Plug-In . SVG Version: 2.1.3 Build 182)  -->
  <defs>
    <style>
      .st0 {
        fill: url(#linear-gradient44);
      }

      .st0, .st1, .st2, .st3, .st4, .st5, .st6, .st7, .st8, .st9, .st10, .st11, .st12, .st13, .st14, .st15, .st16, .st17, .st18, .st19, .st20, .st21, .st22, .st23, .st24, .st25, .st26, .st27, .st28, .st29, .st30, .st31, .st32, .st33, .st34, .st35, .st36, .st37, .st38, .st39, .st40, .st41, .st42, .st43, .st44, .st45 {
        stroke-miterlimit: 10;
      }

      .st0, .st1, .st2, .st3, .st4, .st5, .st6, .st7, .st9, .st10, .st12, .st16, .st17, .st18, .st21, .st24, .st25, .st27, .st28, .st31, .st33, .st34, .st35, .st37, .st40, .st41, .st43 {
        stroke: #f2f2f2;
      }

      .st0, .st1, .st2, .st4, .st5, .st6, .st7, .st9, .st10, .st16, .st18, .st24, .st27, .st28, .st31, .st33, .st34, .st37, .st43 {
        stroke-width: .75px;
      }

      .st1 {
        fill: url(#New_Gradient_Swatch_3);
      }

      .st46 {
        fill: url(#linear-gradient34);
      }

      .st2 {
        fill: url(#New_Gradient_Swatch_4);
      }

      .st3 {
        fill: url(#linear-gradient39);
      }

      .st4 {
        fill: url(#New_Gradient_Swatch_31);
      }

      .st5 {
        fill: url(#New_Gradient_Swatch_42);
      }

      .st6 {
        fill: #abc7ff;
      }

      .st47 {
        fill: url(#linear-gradient10);
      }

      .st7 {
        fill: url(#linear-gradient26);
      }

      .st8 {
        fill: url(#linear-gradient15);
      }

      .st8, .st11, .st13, .st14, .st15, .st19, .st20, .st22, .st23, .st26, .st29, .st30, .st32, .st36, .st38, .st39, .st42, .st44, .st45 {
        stroke: #ffb315;
      }

      .st48 {
        fill: url(#linear-gradient21);
      }

      .st9 {
        fill: url(#linear-gradient35);
      }

      .st49 {
        fill: url(#linear-gradient37);
      }

      .st50 {
        fill: url(#linear-gradient56);
      }

      .st51 {
        fill: url(#linear-gradient27);
      }

      .st10 {
        fill: url(#linear-gradient33);
      }

      .st11 {
        fill: url(#linear-gradient8);
      }

      .st52 {
        fill: url(#linear-gradient57);
      }

      .st12 {
        fill: url(#linear-gradient24);
      }

      .st13 {
        fill: url(#linear-gradient2);
      }

      .st53 {
        fill: url(#linear-gradient18);
      }

      .st14 {
        fill: url(#linear-gradient50);
      }

      .st15 {
        fill: url(#linear-gradient52);
      }

      .st54 {
        fill: url(#linear-gradient23);
      }

      .st55 {
        fill: url(#linear-gradient43);
      }

      .st16 {
        fill: url(#linear-gradient48);
      }

      .st17 {
        fill: url(#linear-gradient47);
      }

      .st18 {
        fill: url(#New_Gradient_Swatch_41);
      }

      .st19 {
        fill: url(#linear-gradient5);
      }

      .st20 {
        fill: url(#linear-gradient22);
      }

      .st21 {
        fill: url(#linear-gradient30);
      }

      .st22 {
        fill: url(#linear-gradient3);
      }

      .st23 {
        fill: url(#linear-gradient4);
      }

      .st24 {
        fill: url(#linear-gradient46);
      }

      .st56 {
        fill: url(#linear-gradient29);
      }

      .st25 {
        fill: url(#linear-gradient32);
      }

      .st57 {
        fill: url(#linear-gradient19);
      }

      .st58 {
        fill: url(#linear-gradient12);
      }

      .st26 {
        fill: url(#linear-gradient6);
      }

      .st27 {
        fill: url(#linear-gradient49);
      }

      .st28 {
        fill: url(#New_Gradient_Swatch_43);
      }

      .st29 {
        fill: url(#linear-gradient20);
      }

      .st30 {
        fill: url(#linear-gradient17);
      }

      .st59 {
        fill: url(#linear-gradient31);
      }

      .st31 {
        fill: url(#linear-gradient51);
      }

      .st32 {
        fill: url(#linear-gradient1);
      }

      .st60 {
        fill: url(#linear-gradient14);
      }

      .st33 {
        fill: url(#linear-gradient42);
      }

      .st61 {
        fill: url(#linear-gradient55);
      }

      .st34 {
        fill: url(#linear-gradient53);
      }

      .st35 {
        fill: url(#linear-gradient40);
      }

      .st36 {
        fill: url(#linear-gradient);
      }

      .st37 {
        fill: url(#linear-gradient45);
      }

      .st62 {
        fill: url(#linear-gradient54);
      }

      .st38 {
        fill: url(#linear-gradient7);
      }

      .st39 {
        fill: url(#linear-gradient11);
      }

      .st40 {
        fill: url(#linear-gradient28);
        stroke-width: .25px;
      }

      .st41 {
        fill: url(#linear-gradient38);
      }

      .st63 {
        fill: url(#linear-gradient13);
      }

      .st42 {
        fill: url(#linear-gradient16);
      }

      .st43 {
        fill: url(#linear-gradient25);
      }

      .st44 {
        fill: url(#linear-gradient9);
      }

      .st64 {
        fill: url(#linear-gradient41);
      }

      .st45 {
        fill: url(#linear-gradient36);
      }
    </style>
    <linearGradient id="linear-gradient" x1="-278.15" y1="835.79" x2="-278.15" y2="835.79" gradientUnits="userSpaceOnUse">
      <stop offset=".12" stop-color="#ffe7a3"/>
      <stop offset=".5" stop-color="#ffca05"/>
      <stop offset="1" stop-color="#faac18"/>
    </linearGradient>
    <linearGradient id="linear-gradient1" x1="-16.7" y1="1219.81" x2="-16.7" y2="1219.81" xlink:href="#linear-gradient"/>
    <linearGradient id="linear-gradient2" x1="755.38" y1="-79.26" x2="755.38" y2="-79.26" gradientUnits="userSpaceOnUse">
      <stop offset="0" stop-color="#d1e4a5"/>
      <stop offset=".5" stop-color="#acd479"/>
      <stop offset="1" stop-color="#76b83f"/>
    </linearGradient>
    <linearGradient id="linear-gradient3" x1="205.94" y1="-518.4" x2="205.94" y2="-518.4" xlink:href="#linear-gradient2"/>
    <linearGradient id="linear-gradient4" x1="246.14" y1="1013.71" x2="246.14" y2="1013.71" xlink:href="#linear-gradient"/>
    <linearGradient id="linear-gradient5" x1="1514.56" y1="1042.31" x2="1514.56" y2="1042.31" xlink:href="#linear-gradient"/>
    <linearGradient id="linear-gradient6" x1="782.09" y1="909.54" x2="782.09" y2="909.54" xlink:href="#linear-gradient2"/>
    <linearGradient id="linear-gradient7" x1="405.46" y1="1111.75" x2="405.46" y2="1111.75" xlink:href="#linear-gradient2"/>
    <linearGradient id="linear-gradient8" x1="266.56" y1="846.22" x2="266.56" y2="846.22" xlink:href="#linear-gradient2"/>
    <linearGradient id="linear-gradient9" x1="117.46" y1="856.43" x2="117.46" y2="856.43" gradientUnits="userSpaceOnUse">
      <stop offset="0" stop-color="#f37e5f"/>
      <stop offset=".5" stop-color="#ec1c24"/>
      <stop offset="1" stop-color="#cf232a"/>
    </linearGradient>
    <linearGradient id="linear-gradient10" x1="0" y1="344.25" x2="774.13" y2="344.25" gradientUnits="userSpaceOnUse">
      <stop offset=".12" stop-color="#ffe7a3"/>
      <stop offset=".5" stop-color="#ffaa05"/>
      <stop offset="1" stop-color="#faac18"/>
    </linearGradient>
    <linearGradient id="linear-gradient11" x1="1143.83" y1="204.07" x2="1143.83" y2="204.07" xlink:href="#linear-gradient"/>
    <linearGradient id="linear-gradient12" x1="1.68" y1="216.33" x2="439.15" y2="216.33" gradientUnits="userSpaceOnUse">
      <stop offset="0" stop-color="#fff7a9"/>
      <stop offset=".5" stop-color="#e7f100"/>
      <stop offset="1" stop-color="gold"/>
    </linearGradient>
    <linearGradient id="linear-gradient13" x1="379.55" y1="540.48" x2="1868.57" y2="540.48" xlink:href="#linear-gradient"/>
    <linearGradient id="linear-gradient14" x1="1394.91" y1="772.04" x2="1924.09" y2="772.04" xlink:href="#linear-gradient"/>
    <linearGradient id="linear-gradient15" x1="962.4" y1="353.18" x2="962.4" y2="353.18" gradientUnits="userSpaceOnUse">
      <stop offset="0" stop-color="#fff7a9"/>
      <stop offset=".5" stop-color="#fff100"/>
      <stop offset="1" stop-color="gold"/>
    </linearGradient>
    <linearGradient id="linear-gradient16" x1="1697.36" y1="771.9" x2="1697.36" y2="771.9" xlink:href="#linear-gradient"/>
    <linearGradient id="linear-gradient17" x1="892.6" y1="747.39" x2="892.6" y2="747.39" xlink:href="#linear-gradient"/>
    <linearGradient id="linear-gradient18" x1="4.09" y1="250.03" x2="545.4" y2="250.03" gradientUnits="userSpaceOnUse">
      <stop offset="0" stop-color="#d1e4a5"/>
      <stop offset=".5" stop-color="#38e779"/>
      <stop offset="1" stop-color="#76b83f"/>
    </linearGradient>
    <linearGradient id="linear-gradient19" x1="1504.53" y1="771.9" x2="1786.33" y2="771.9" xlink:href="#linear-gradient15"/>
    <linearGradient id="linear-gradient20" x1="387.06" y1="330.71" x2="387.06" y2="330.71" xlink:href="#linear-gradient2"/>
    <linearGradient id="linear-gradient21" x1="4.09" y1="297.28" x2="668.17" y2="297.28" gradientUnits="userSpaceOnUse">
      <stop offset="0" stop-color="#8ad0c3"/>
      <stop offset=".5" stop-color="#9cff6a"/>
      <stop offset="1" stop-color="#00a185"/>
    </linearGradient>
    <linearGradient id="linear-gradient22" x1="295.15" y1="545.18" x2="295.15" y2="545.18" xlink:href="#linear-gradient9"/>
    <linearGradient id="linear-gradient23" x1="265.49" y1="409.21" x2="-1082.61" y2="925.18" gradientUnits="userSpaceOnUse">
      <stop offset="0" stop-color="#7c76b7"/>
      <stop offset=".5" stop-color="#bdffb7"/>
      <stop offset="1" stop-color="#483f99"/>
    </linearGradient>
    <linearGradient id="linear-gradient24" x1="992.32" y1="417.09" x2="992.32" y2="417.09" xlink:href="#linear-gradient12"/>
    <linearGradient id="linear-gradient25" x1="706.36" y1="151.55" x2="706.36" y2="151.55" xlink:href="#linear-gradient21"/>
    <linearGradient id="linear-gradient26" x1="946.73" y1="-171.17" x2="946.73" y2="-171.17" xlink:href="#linear-gradient23"/>
    <linearGradient id="linear-gradient27" x1="532.74" y1="541.48" x2="1645.94" y2="541.48" xlink:href="#linear-gradient12"/>
    <linearGradient id="linear-gradient28" x1="922.87" y1="-259" x2="922.87" y2="-259" xlink:href="#linear-gradient12"/>
    <linearGradient id="linear-gradient29" x1="708.4" y1="539.64" x2="1694.96" y2="539.64" gradientUnits="userSpaceOnUse">
      <stop offset="0" stop-color="#d1e4a5"/>
      <stop offset=".5" stop-color="#91de79"/>
      <stop offset="1" stop-color="#76b83f"/>
    </linearGradient>
    <linearGradient id="linear-gradient30" x1="2281.17" y1="-187.51" x2="2281.17" y2="-187.51" gradientUnits="userSpaceOnUse">
      <stop offset="0" stop-color="#d1e4a5"/>
      <stop offset=".5" stop-color="#e4de79"/>
      <stop offset="1" stop-color="#76b83f"/>
    </linearGradient>
    <linearGradient id="linear-gradient31" x1="884.06" y1="542.7" x2="1782.79" y2="542.7" xlink:href="#linear-gradient21"/>
    <linearGradient id="linear-gradient32" x1="1143.83" y1="542.5" x2="1143.83" y2="542.5" xlink:href="#linear-gradient29"/>
    <linearGradient id="linear-gradient33" x1="668.17" y1="283.73" x2="668.17" y2="283.73" xlink:href="#linear-gradient21"/>
    <linearGradient id="linear-gradient34" x1="1361.83" y1="615.46" x2="-160.69" y2="1198.18" xlink:href="#linear-gradient23"/>
    <linearGradient id="linear-gradient35" x1="722.7" y1="-259" x2="722.7" y2="-259" xlink:href="#linear-gradient23"/>
    <linearGradient id="New_Gradient_Swatch_4" data-name="New Gradient Swatch 4" x1="58.87" y1="187.3" x2="193.68" y2="187.3" gradientUnits="userSpaceOnUse">
      <stop offset="0" stop-color="#d7f0fc"/>
      <stop offset=".45" stop-color="#abe1fa"/>
      <stop offset="1" stop-color="#96cff1"/>
    </linearGradient>
    <linearGradient id="New_Gradient_Swatch_3" data-name="New Gradient Swatch 3" x1="120.63" y1="694.95" x2="299.71" y2="694.95" gradientUnits="userSpaceOnUse">
      <stop offset="0" stop-color="#d3edf0"/>
      <stop offset=".45" stop-color="#aedfe6"/>
      <stop offset="1" stop-color="#7ccfda"/>
    </linearGradient>
    <linearGradient id="New_Gradient_Swatch_41" data-name="New Gradient Swatch 4" x1="210.17" y1="233.25" x2="264.35" y2="233.25" xlink:href="#New_Gradient_Swatch_4"/>
    <linearGradient id="linear-gradient36" x1="1995.21" y1="-156.87" x2="1995.21" y2="-156.87" xlink:href="#linear-gradient15"/>
    <linearGradient id="linear-gradient37" x1="1646.97" y1="771.8" x2="1924.09" y2="771.8" xlink:href="#linear-gradient29"/>
    <linearGradient id="linear-gradient38" x1="2187.21" y1="758.19" x2="2187.21" y2="758.19" xlink:href="#linear-gradient29"/>
    <linearGradient id="linear-gradient39" x1="2134.11" y1="619.3" x2="2134.11" y2="619.3" xlink:href="#linear-gradient29"/>
    <linearGradient id="linear-gradient40" x1="2228.06" y1="694.95" x2="2228.06" y2="694.95" xlink:href="#linear-gradient29"/>
    <linearGradient id="linear-gradient41" x1="1756.06" y1="760.23" x2="1919.64" y2="760.23" xlink:href="#linear-gradient21"/>
    <linearGradient id="linear-gradient42" x1="1995.21" y1="972.66" x2="1995.21" y2="972.66" xlink:href="#linear-gradient21"/>
    <linearGradient id="linear-gradient43" x1="1890.27" y1="643.93" x2="1709.71" y2="713.03" xlink:href="#linear-gradient23"/>
    <linearGradient id="linear-gradient44" x1="1678.62" y1="430.8" x2="1678.62" y2="430.8" xlink:href="#linear-gradient23"/>
    <linearGradient id="linear-gradient45" x1="2258.7" y1="874.62" x2="2258.7" y2="874.62" xlink:href="#linear-gradient23"/>
    <linearGradient id="linear-gradient46" x1="2070.79" y1="382.36" x2="2070.79" y2="382.36" xlink:href="#linear-gradient23"/>
    <linearGradient id="New_Gradient_Swatch_42" data-name="New Gradient Swatch 4" x1="1016.08" y1="921.32" x2="1209.94" y2="921.32" xlink:href="#New_Gradient_Swatch_4"/>
    <linearGradient id="New_Gradient_Swatch_43" data-name="New Gradient Swatch 4" x1="1394.7" y1="275.56" x2="1452.46" y2="275.56" xlink:href="#New_Gradient_Swatch_4"/>
    <linearGradient id="New_Gradient_Swatch_31" data-name="New Gradient Swatch 3" x1="1455.98" y1="187.3" x2="1690.87" y2="187.3" xlink:href="#New_Gradient_Swatch_3"/>
    <linearGradient id="linear-gradient47" x1="2354.7" y1="874.62" x2="2354.7" y2="874.62" xlink:href="#linear-gradient29"/>
    <linearGradient id="linear-gradient48" x1="-31" y1="353.18" x2="-31" y2="353.18" xlink:href="#linear-gradient23"/>
    <linearGradient id="linear-gradient49" x1="-188.28" y1="233.25" x2="-188.28" y2="233.25" xlink:href="#linear-gradient23"/>
    <linearGradient id="linear-gradient50" x1="1323.21" y1="1281.09" x2="1323.21" y2="1281.09" xlink:href="#linear-gradient"/>
    <linearGradient id="linear-gradient51" x1="506.19" y1="-140.53" x2="506.19" y2="-140.53" xlink:href="#linear-gradient21"/>
    <linearGradient id="linear-gradient52" x1="2134.11" y1="709.17" x2="2134.11" y2="709.17" xlink:href="#linear-gradient"/>
    <linearGradient id="linear-gradient53" x1="2089.17" y1="609.63" x2="2089.17" y2="609.63" xlink:href="#linear-gradient23"/>
    <linearGradient id="linear-gradient54" x1="960" y1="-224.28" x2="960" y2="-224.28" xlink:href="#linear-gradient23"/>
    <linearGradient id="linear-gradient55" x1="962.4" y1="-107.85" x2="962.4" y2="-107.85" xlink:href="#linear-gradient12"/>
    <linearGradient id="linear-gradient56" x1="1284.4" y1="-322.32" x2="1284.4" y2="-322.32" xlink:href="#linear-gradient12"/>
    <linearGradient id="linear-gradient57" x1="-229.13" y1="127.04" x2="-229.13" y2="127.04" xlink:href="#linear-gradient12"/>
  </defs>
  <path class="st36" d="M-278.15,835.79"/>
  <path class="st32" d="M-16.7,1219.81"/>
  <path class="st13" d="M755.38-79.26"/>
  <path class="st22" d="M205.94-518.4"/>
  <rect class="st6" width="1920" height="1080"/>
  <path class="st23" d="M246.14,1013.71"/>
  <path class="st19" d="M1514.56,1042.31"/>
  <path class="st26" d="M782.09,909.54"/>
  <path class="st38" d="M405.46,1111.75"/>
  <path class="st11" d="M266.56,846.22"/>
  <path class="st44" d="M117.46,856.43"/>
  <path d="M946.73,888.57c1.93,0,1.93-3,0-3s-1.93,3,0,3h0Z"/>
  <path d="M587.24,790.53c1.93,0,1.93-3,0-3s-1.93,3,0,3h0Z"/>
  <path class="st47" d="M774.13-.18c-4.26,63.28-19.31,169.09-77.62,283.91-111.59,219.74-300.97,313.62-357.45,339.06C202.04,684.54,76.14,690.96,0,688.16c.8-143.4,1.6-286.79,2.4-430.19,24.26-8.36,51.19-20.47,78.5-38.3C185.52,151.37,225.13,45.3,238.98-.18h535.15Z"/>
  <path class="st39" d="M1143.83,204.07"/>
  <path class="st58" d="M439.15,1.86c-9.31,79.75-35.12,137.95-53.11,171.57-77.36,144.65-208.54,206.1-261.45,226.72-49.36,19.24-92.49,27.06-120.51,30.64-.8-35.21-1.6-70.42-2.4-105.62,40.25-6.09,101.43-21.12,163.77-61.86C297.48,177,335.89,39.92,345.19,1.86h93.96Z"/>
  <path class="st63" d="M1405.28,4.99c13.99-2.09,30.85-4.2,30.85-4.2,70.77-7.25,158.12-.03,160.79,18,3.14,21.23-112.26,49.7-110.3,57.19,3.55,13.53,381.64-72.84,381.96-71.49.16.7-105.35,6.29-206.12,55.43-287.87,140.38-356.05,547.9-367.27,614.92-14.22,85-25.55,216.01,3.51,377.48-306.38,10.21-612.77,20.43-919.15,30.64,20.25-123.14,89.82-443.16,359.49-716.94C940.24,161.76,1201.43,35.42,1405.28,4.99Z"/>
  <path class="st60" d="M1813.79,458.61c31.63-.84,80.24-.17,93.96,26.55,5.48,10.67,4.81,24.44-12.62,66.73-21.78,52.85-43.65,86.97-51.06,100.09-31.84,56.33-18.87,117.82,4.09,226.72,10.85,51.47,31.91,124.92,75.94,206.97-163.4-1.36-326.81-2.72-490.21-4.09-10.46-24.51-90.26-220.19,14.3-404.43,64.74-114.07,167.16-165.63,187.91-175.66,72.58-35.07,138.99-41.87,177.7-42.89Z"/>
  <path class="st8" d="M962.4,353.18"/>
  <path class="st42" d="M1697.36,771.9"/>
  <path class="st30" d="M892.6,747.39"/>
  <path class="st53" d="M545.36,1.86c.29,21.14-.79,52.7-8.17,89.87-41.53,209.17-227.6,319.16-255.32,334.98-109.76,62.65-216.68,71.68-277.79,71.49.68-30.01,1.36-60.02,2.04-90.04,34.44-3.7,245.66-29.81,363.57-210.22C418.06,123.96,433.68,50.1,439.15,1.86h106.21Z"/>
  <path class="st57" d="M1715.38,476.32c-36.26,21.95-130.46,85.73-180.28,208.77-47.24,116.66-28.17,221.41-18.38,271.66,10.37,53.26,27.21,95.66,40.85,124.6,54.47,1.36,108.94,2.72,163.4,4.09-16.91-30.69-36.73-73.33-51.06-126.64-12.76-47.43-16.88-87.33-18.38-112.34-2.28-37.8-6.69-127.31,34.72-230.81,28.49-71.19,68.3-123.12,100.09-157.28l-70.95,17.95Z"/>
  <path class="st29" d="M387.06,330.71"/>
  <path class="st48" d="M668.17-3.85c-7.53,57.03-26.14,147.26-78.23,245.27-28.94,54.46-106.76,196.35-277.43,285.37-126.13,65.79-244.62,72.7-308.43,71.49v-100.09c42.74-.95,215.99-9.71,365.62-147.06C519.14,213.96,542.77,42.37,547.4-.18c40.25-1.22,80.51-2.44,120.76-3.66Z"/>
  <path class="st20" d="M295.15,545.18"/>
  <path class="st54" d="M778.21.64c-.71,10.37-1.99,25.94-4.45,44.7-36.62,279.86-226.59,453.78-249.19,473.87-77.09,68.53-150.41,104.53-178.57,117.27,0,0-3.7,1.67-7.3,3.24C292.85,659.74,197.14,689.48,0,691.78c1.36-31.17,2.72-62.33,4.09-93.5,36.37-4.33,343.03-44.4,504.15-236.35,63.16-75.25,104.17-167.49,104.17-167.49,34.6-77.83,49.18-148.07,55.76-198.29,36.68,1.5,73.36,2.99,110.05,4.49Z"/>
  <path d="M226.72,661.06c1.93,0,1.93-3,0-3s-1.93,3,0,3h0Z"/>
  <path class="st12" d="M992.32,417.09"/>
  <path class="st43" d="M706.36,151.55"/>
  <path class="st7" d="M946.73-171.17"/>
  <path class="st51" d="M1568.32,0c-174.94,45.88-420.13,140.03-639.32,341.51-115.68,106.34-184.44,207.18-209.82,246.77,0,0-3.34,5.22-6.7,10.59-41.63,66.62-110.22,202.66-179.74,484.09,58.55-.68,117.11-1.36,175.66-2.04,9.96-105.79,54.53-434.67,322.72-723.06C1264.65,106.74,1537.58,26.26,1645.94.4c-25.87-.13-51.74-.27-77.62-.4Z"/>
  <path class="st40" d="M922.87-259"/>
  <path class="st56" d="M1631.64.4c-129.73,36.69-364.72,123.29-576,332.94-60.95,60.48-173.32,172.35-255.32,357.45-69.91,157.81-87.62,300.12-91.91,390.13h175.66c7-80.93,23.41-189.55,63.32-312.51,0,0,48.8-150.36,122.55-273.7C1250.18,193.26,1610.01,34.14,1694.96-1.64c-21.11.68-42.21,1.36-63.32,2.04Z"/>
  <path class="st21" d="M2281.17-187.51"/>
  <path class="st59" d="M1682.7,4.49c-109.73,36.55-295.53,116.19-461.62,290.04-152.05,159.16-216.98,323.39-251.23,412.6-57.23,149.04-77.88,281.36-85.79,373.79h234.89c-9.32-92.04-23.34-351.11,130.72-620.94C1425.02,152.9,1701.82,35.5,1782.79,4.49h-100.09Z"/>
  <path class="st25" d="M1143.83,542.5"/>
  <path class="st10" d="M668.17,283.73"/>
  <path class="st46" d="M1780.74,1.67c-96.78,34.36-264.35,109.41-410.55,269.62-109.32,119.79-161.25,237.38-175.66,271.66-39.82,94.68-54.03,173.45-63.32,226.72-21.71,124.46-20.45,231.26-14.3,308.43,71.49.94,142.98,1.88,214.47,2.82-24-73.15-60.81-219.44-26.55-397.04,30.31-157.13,101.35-261.98,145.02-324.77C1589.96,157.67,1772.9,53.02,1882.87,2.45c-34.04-.26-68.09-.52-102.13-.78Z"/>
  <path class="st9" d="M722.7-259"/>
  <ellipse class="st2" cx="126.28" cy="187.3" rx="67.4" ry="60.26"/>
  <ellipse class="st1" cx="210.17" cy="694.95" rx="89.54" ry="85.31"/>
  <ellipse class="st18" cx="237.26" cy="233.25" rx="27.09" ry="29.18"/>
  <path class="st45" d="M1995.21-156.87"/>
  <path class="st49" d="M1839.98,457.94c-24.28,38.27-80.09,137.03-77.62,265.53,1.68,87.1,29.49,155.04,34.72,167.49,12.35,29.4,25.93,52.77,36.77,69.45,22.83,13.31,69.95,45.57,85.79,102.13,2.22,7.93,3.64,15.68,4.45,23.14-66.84-.1-133.69-.2-200.53-.3-23.87-42.7-55.92-111.97-69.45-202.58-4.46-29.85-11.07-76.39-4.09-136.85,16.81-145.43,97.48-242.74,121.15-270.54,6.17-7.25,11.49-13.08,15.17-17.03,17.88-.14,35.76-.29,53.64-.43Z"/>
  <path class="st41" d="M2187.21,758.19"/>
  <path class="st3" d="M2134.11,619.3"/>
  <path class="st35" d="M2228.06,694.95"/>
  <path class="st64" d="M1839.98,457.94c-23.83,31.91-62.45,92.63-77.62,177.7-21.47,120.48,17.45,214.94,34.72,255.32,35.45,82.86,86.64,138.83,122.55,171.57-.68-83.06-1.36-166.13-2.04-249.19-12.57-20.95-24.77-45.43-34.72-73.53-39.27-110.82-20.59-212.41-6.13-265.53,5.79-3.19,8.51-5.91,8.17-8.17-.74-4.87-15.71-7.6-44.94-8.17Z"/>
  <path class="st33" d="M1995.21,972.66"/>
  <path class="st55" d="M1884.91,466.11c-7,12.22-15.9,30.19-22.47,53.11-3.46,12.08-10.81,41.17-8.17,93.96,1.62,32.31,7.31,80.14,26.55,136.85,12.26,21.11,24.51,42.21,36.77,63.32h0c1.36-21.11,2.72-42.21,4.09-63.32-.63-34.87.67-62.49,2.04-81.7.3-4.2,3.73-22.12,1.7-22.64-1.46-.38-4.02,8.63-5.79,8.35-3.71-.59.5-41.5,2.04-71.49,1.16-22.42,1.68-55.26-2.04-96-11.57-6.81-23.15-13.62-34.72-20.43Z"/>
  <path class="st0" d="M1678.62,430.8"/>
  <path class="st37" d="M2258.7,874.62"/>
  <path class="st24" d="M2070.79,382.36"/>
  <ellipse class="st5" cx="1113.01" cy="921.32" rx="96.93" ry="85.53"/>
  <ellipse class="st28" cx="1423.58" cy="275.56" rx="28.88" ry="28.83"/>
  <ellipse class="st4" cx="1573.43" cy="187.3" rx="117.45" ry="114.66"/>
  <path class="st17" d="M2354.7,874.62"/>
  <path class="st16" d="M-31,353.18"/>
  <path class="st27" d="M-188.28,233.25"/>
  <path class="st14" d="M1323.21,1281.09"/>
  <path class="st31" d="M506.19-140.53"/>
  <path class="st15" d="M2134.11,709.17"/>
  <path class="st34" d="M2089.17,609.63"/>
  <path class="st62" d="M960-224.28"/>
  <path class="st61" d="M962.4-107.85"/>
  <path class="st50" d="M1284.4-322.32"/>
  <path class="st52" d="M-229.13,127.04"/>
</svg>